<svg id="Layer_1" enable-background="new 0 0 256 256" height="512" viewBox="0 0 256 256" width="512" xmlns="http://www.w3.org/2000/svg"><g><g><path d="m128 15.098c-45.116 0-81.82 36.705-81.82 81.82 0 29.125 8.86 40.804 51.434 96.929 7.39 9.743 15.767 20.785 25.351 33.564 1.189 1.585 3.054 2.518 5.035 2.518s3.846-.933 5.035-2.518c9.529-12.709 17.869-23.71 25.227-33.415 42.677-56.289 51.558-68.002 51.558-97.077 0-45.116-36.704-81.821-81.82-81.821z" fill="#cecece"/><g><path d="m129.465 227.411c-9.585-12.778-17.961-23.821-25.351-33.564-42.575-56.124-51.434-67.804-51.434-96.929 0-44.026 34.957-80.023 78.57-81.738-1.08-.042-2.16-.082-3.25-.082-45.116 0-81.82 36.705-81.82 81.82 0 29.125 8.86 40.804 51.434 96.929 7.39 9.743 15.767 20.785 25.351 33.564 1.189 1.585 3.054 2.518 5.036 2.518 1.162 0 2.28-.329 3.249-.914-.682-.413-1.294-.949-1.785-1.604z" fill="#afafaf"/></g><g><path d="m126.535 227.411c9.585-12.778 17.961-23.821 25.351-33.564 42.575-56.125 51.434-67.805 51.434-96.929 0-44.026-34.957-80.023-78.57-81.738 1.08-.042 2.16-.082 3.25-.082 45.116 0 81.82 36.705 81.82 81.82 0 29.125-8.86 40.804-51.434 96.929-7.39 9.743-15.767 20.785-25.351 33.564-1.189 1.585-3.054 2.518-5.036 2.518-1.162 0-2.28-.329-3.249-.914.682-.413 1.294-.949 1.785-1.604z" fill="#e2e2e2"/></g><circle cx="128" cy="96.918" fill="#63bce7" r="57.121"/><g><path d="m77.379 96.918c0-30.405 23.881-55.331 53.871-57.022-1.076-.061-2.159-.099-3.25-.099-31.496 0-57.121 25.624-57.121 57.121 0 31.496 25.624 57.121 57.121 57.121 1.091 0 2.174-.038 3.25-.099-29.989-1.691-53.871-26.616-53.871-57.022z" fill="#6377e7"/></g><g><path d="m178.621 96.918c0-30.405-23.881-55.331-53.871-57.022 1.076-.061 2.159-.099 3.25-.099 31.496 0 57.121 25.624 57.121 57.121 0 31.496-25.624 57.121-57.121 57.121-1.091 0-2.174-.038-3.25-.099 29.989-1.691 53.871-26.616 53.871-57.022z" fill="#63e2e7"/></g><g><path d="m160.581 96.537c-1.317 0-2.65-.347-3.861-1.076l-28.72-17.292-28.72 17.293c-3.549 2.138-8.157.992-10.294-2.557s-.992-8.157 2.557-10.294l32.588-19.622c2.38-1.433 5.357-1.433 7.737 0l32.588 19.622c3.548 2.137 4.693 6.746 2.557 10.294-1.407 2.338-3.888 3.632-6.432 3.632z" fill="#f46275"/></g><path d="m99.28 95.462 28.72-17.293 28.72 17.293v37.96h-57.44z" fill="#f8af23"/><path d="m128 103.339c-6.282 0-11.375 5.093-11.375 11.375v18.708h22.75v-18.708c0-6.282-5.093-11.375-11.375-11.375z" fill="#9e9e9e"/></g><g fill="#3f3679"><path d="m186.621 96.918c0-32.324-26.297-58.621-58.621-58.621s-58.621 26.298-58.621 58.621 26.297 58.621 58.621 58.621 58.621-26.297 58.621-58.621zm-58.621 55.621c-30.669 0-55.621-24.951-55.621-55.621s24.952-55.62 55.621-55.62 55.621 24.951 55.621 55.621-24.952 55.62-55.621 55.62z"/><path d="m169.323 86.867c-.58-2.333-2.033-4.301-4.092-5.541l-32.589-19.622c-2.863-1.724-6.42-1.724-9.285 0l-32.588 19.622c-2.059 1.24-3.513 3.208-4.092 5.541s-.215 4.752 1.024 6.812c1.24 2.06 3.208 3.513 5.541 4.093.725.18 1.458.269 2.186.269.796 0 1.586-.109 2.353-.319v35.701c0 .829.671 1.5 1.5 1.5h17.345 22.75 17.345c.829 0 1.5-.671 1.5-1.5v-35.706c.767.21 1.561.32 2.361.32 3.142 0 6.099-1.67 7.718-4.358 1.239-2.06 1.602-4.479 1.023-6.812zm-51.198 45.055v-17.208c0-5.445 4.43-9.875 9.875-9.875s9.875 4.43 9.875 9.875v17.208zm22.75 0v-17.208c0-7.099-5.776-12.875-12.875-12.875s-12.875 5.776-12.875 12.875v17.208h-14.345v-35.613l27.22-16.389 27.22 16.389v35.613zm24.854-39.791c-1.096 1.82-3.02 2.906-5.147 2.906-1.084 0-2.152-.298-3.087-.861l-28.72-17.292c-.477-.286-1.071-.286-1.548 0l-28.72 17.292c-.001 0-.001.001-.002.002-1.373.826-2.982 1.069-4.539.682-1.555-.387-2.867-1.355-3.694-2.729-1.707-2.834-.789-6.528 2.045-8.235l32.588-19.622c.955-.575 2.025-.862 3.095-.862s2.141.287 3.095.862l32.588 19.622c2.835 1.707 3.752 5.401 2.046 8.235z"/><path d="m27.323 239.402h-18.003c-.829 0-1.5.671-1.5 1.5s.671 1.5 1.5 1.5h18.003c.829 0 1.5-.671 1.5-1.5s-.671-1.5-1.5-1.5z"/><path d="m246.68 239.402h-18.003c-.829 0-1.5.671-1.5 1.5s.671 1.5 1.5 1.5h18.003c.829 0 1.5-.671 1.5-1.5s-.671-1.5-1.5-1.5z"/><path d="m218.479 239.402h-180.958c-.829 0-1.5.671-1.5 1.5s.671 1.5 1.5 1.5h180.959c.829 0 1.5-.671 1.5-1.5s-.672-1.5-1.501-1.5z"/><path d="m9.32 231.429h237.36c.829 0 1.5-.671 1.5-1.5s-.671-1.5-1.5-1.5h-112.544c.032-.041.069-.077.1-.118 9.511-12.686 17.839-23.671 25.224-33.411 42.928-56.62 51.861-68.403 51.861-97.981 0-45.943-37.377-83.32-83.32-83.32s-83.32 37.377-83.32 83.32c0 29.629 8.913 41.378 51.739 97.835l.236.312c7.326 9.659 15.63 20.606 25.11 33.246.031.041.068.077.1.118h-112.546c-.829 0-1.5.671-1.5 1.5s.671 1.499 1.5 1.499zm114.846-4.918c-9.485-12.646-17.792-23.597-25.12-33.258l-.237-.312c-42.322-55.792-51.129-67.402-51.129-96.023 0-44.289 36.032-80.32 80.32-80.32s80.32 36.032 80.32 80.32c0 28.569-8.829 40.214-51.288 96.217-7.35 9.695-15.681 20.683-25.197 33.375-.9 1.201-2.334 1.918-3.834 1.918-1.501.001-2.936-.716-3.835-1.917z"/></g></g></svg>