<?xml version="1.0" encoding="iso-8859-1"?>
<!-- Generator: Adobe Illustrator 19.0.0, SVG Export Plug-In . SVG Version: 6.00 Build 0)  -->
<svg version="1.1" id="Capa_1" xmlns="http://www.w3.org/2000/svg" xmlns:xlink="http://www.w3.org/1999/xlink" x="0px" y="0px"
	 viewBox="0 0 512 512" style="enable-background:new 0 0 512 512;" xml:space="preserve">
<path style="fill:#77DD00;" d="M441.904,248.38H70.096c-34.717,0-62.861-28.144-62.861-62.861V72.424
	c0-34.717,28.144-62.861,62.861-62.861h371.808c34.717,0,62.861,28.144,62.861,62.861v113.095
	C504.765,220.236,476.621,248.38,441.904,248.38z"/>
<path style="fill:#74CE00;" d="M504.765,78.165v-5.741c0-34.717-28.144-62.861-62.861-62.861h-44.008
	c34.717,0,62.861,28.144,62.861,62.861v32.108c0,24.75-20.064,44.815-44.815,44.815H78.417c-64.188,0-71.182-30.296-71.182-30.296
	v66.468c0,34.717,28.144,62.861,62.861,62.861h327.8h44.008c34.717,0,62.861-28.144,62.861-62.861v-63.36
	C506.14,110.049,504.765,94.772,504.765,78.165z"/>
<path style="fill:#FED9A8;" d="M414.042,244.786c0-9.72-7.88-17.599-17.599-17.599s-17.599,7.88-17.599,17.599
	c0-9.72-7.88-17.599-17.6-17.599s-17.599,7.88-17.599,17.599c0-9.72-7.88-17.599-17.6-17.599s-17.6,7.88-17.6,17.599v-98.059
	c0-9.72-7.88-17.6-17.599-17.6c-9.72,0-17.6,7.88-17.6,17.6v179.831l-44.526-54.175c-5.382-6.549-15.079-7.556-21.704-2.133
	c-6.22,5.091-7.296,14.216-2.792,20.874c0,0,89.776,128.641,89.786,145.493l0.031,50.342l99.683-0.061l-0.036-58.153
	c-0.008-13.78,3.499-27.334,10.191-39.38l0,0c6.692-12.046,10.2-25.6,10.191-39.38l-0.028-9.745V244.786z"/>
<path style="fill:#2D5872;" d="M283.614,502.437c-3.704,0.002-6.709-2.999-6.712-6.703l-0.024-39.272
	c-0.002-3.704,2.999-6.709,6.703-6.712l117.771-0.072c3.704-0.002,6.709,2.999,6.711,6.703l0.024,39.272
	c0.002,3.704-2.999,6.709-6.703,6.712L283.614,502.437"/>
<path style="fill:#1D4859;" d="M408.064,456.38c-0.002-3.704-3.007-6.706-6.712-6.703l-47.843,0.029l0.018,30.467
	c0.002,3.705-2.999,6.709-6.703,6.712l-69.928,0.043l0.005,8.805c0.002,3.704,3.007,6.706,6.711,6.703l117.771-0.072
	c3.704-0.002,6.706-3.007,6.703-6.711L408.064,456.38z"/>
<g>
	<path style="fill:#F4C892;" d="M396.442,227.186c-9.718,0-17.597,7.877-17.599,17.595v72.517c9.735,0,17.627-7.892,17.627-17.627
		v-55.335c0-6.351,3.377-11.895,8.421-14.989C402.383,227.971,399.505,227.186,396.442,227.186z"/>
	<path style="fill:#F4C892;" d="M343.644,317.299c9.72,0,17.6-7.88,17.6-17.6v-55.363c0-6.356,3.383-11.905,8.434-14.998
		c-2.505-1.371-5.378-2.152-8.434-2.152c-9.72,0-17.599,7.88-17.599,17.6L343.644,317.299L343.644,317.299z"/>
	<path style="fill:#F4C892;" d="M326.044,299.699v-55.363c0-6.356,3.383-11.905,8.434-14.998c-2.505-1.371-5.378-2.152-8.434-2.152
		c-9.718,0-17.597,7.877-17.599,17.595v72.517C318.165,317.299,326.044,309.419,326.044,299.699z"/>
	<path style="fill:#F4C892;" d="M299.703,131.536L299.703,131.536c-2.604-1.522-5.624-2.409-8.858-2.409
		c-9.72,0-17.6,7.879-17.6,17.599v179.831c9.72,0,17.714-8.592,17.714-18.312V146.727
		C290.959,140.24,294.479,134.589,299.703,131.536z"/>
</g>
<path d="M168.247,101.139c0-25.989-17.51-31.887-37.231-31.887H97.47c-4.424,0-8.663,2.212-8.663,6.451V197.72
	c0,3.317,3.318,6.266,8.663,6.266h37.416c20.644,0,36.679-10.137,36.679-38.706v-3.502c0-18.8-7.557-26.357-18.985-30.781
	C162.164,126.759,168.247,116.437,168.247,101.139z M108.16,86.578h21.565c11.612,0,18.985,5.345,18.985,17.694
	c0,12.534-6.083,18.985-18.617,18.985H108.16V86.578z M152.027,163.807c0,15.851-7.741,22.855-20.827,22.855h-23.04V138.74h23.039
	c13.087,0,20.827,5.898,20.827,22.117L152.027,163.807L152.027,163.807z"/>
<path d="M411.166,69.252c-3.133,0-4.976,1.475-6.451,4.424l-30.227,58.428l-30.413-58.428c-1.658-2.949-3.317-4.424-6.451-4.424
	c-5.16,0-12.348,3.318-12.348,8.11c0,0.738,0.184,1.659,0.737,2.765l38.153,68.75c0.185,0.553,0.553,1.29,0.553,2.027v46.632
	c0,4.239,4.792,6.451,9.769,6.451c4.792,0,9.769-2.212,9.769-6.451v-46.632c0-0.738,0.184-1.474,0.368-2.027l38.153-68.75
	c0.553-1.106,0.553-2.027,0.553-2.765C423.332,72.57,416.328,69.252,411.166,69.252z"/>
<path d="M421.276,244.786c0-13.694-11.141-24.835-24.834-24.835c-6.871,0-13.099,2.804-17.599,7.33
	c-4.501-4.526-10.729-7.33-17.6-7.33s-13.099,2.804-17.599,7.33c-4.501-4.526-10.729-7.33-17.6-7.33
	c-3.698,0-7.208,0.812-10.364,2.267v-75.492c0-13.021-10.076-23.726-22.839-24.747V75.52c0-4.424-4.976-6.267-9.769-6.267
	c-4.976,0-9.768,1.844-9.768,6.267v53.644c-4.503,4.498-7.293,10.71-7.293,17.563v36.375c-3.816,3.135-9.017,4.666-15.378,4.666
	c-14.008,0-22.486-7.557-22.486-23.776V75.52c0-4.424-4.977-6.267-9.769-6.267c-4.977,0-9.769,1.844-9.769,6.267v88.471
	c0,29.859,18.432,41.102,42.024,41.102c5.463,0,10.638-0.602,15.378-1.879V306.36l-31.701-38.572
	c-7.918-9.635-22.217-11.044-31.877-3.138c-8.971,7.341-10.816,20.75-4.201,30.527c0.02,0.029,0.04,0.057,0.059,0.086
	c0.219,0.315,22.17,31.792,44.068,65.18c40.067,61.092,44.143,73.796,44.416,76.267l0.004,5.803l-3.2,0.002
	c-3.724,0.002-7.224,1.455-9.857,4.089c-2.632,2.635-4.08,6.136-4.078,9.861l0.024,39.272c0.004,7.685,6.258,13.935,13.942,13.935
	c0.003,0,0.005,0,0.008,0c0,0,0,0,0.001,0l117.771-0.073c3.724-0.002,7.224-1.454,9.857-4.089c2.632-2.635,4.08-6.136,4.078-9.861
	l-0.025-39.272c-0.004-7.685-6.258-13.935-13.943-13.935c-0.003,0-0.005,0-0.008,0h-0.418l-0.009-13.704
	c-0.008-12.518,3.202-24.919,9.282-35.861c7.272-13.09,11.11-27.923,11.101-42.894V248.478c0-0.217-0.009-0.431-0.028-0.643
	L421.276,244.786L421.276,244.786z M284.137,495.202l-0.025-38.217l116.717-0.073l0,0c0.002,0-0.002,0,0,0l0,0l0.025,38.217
	L284.137,495.202z M406.835,349.988c0.008,12.519-3.201,24.92-9.281,35.861c-7.272,13.091-11.111,27.924-11.102,42.898l0.008,13.704
	l0,0l-85.213,0.052l-0.004-5.892c-0.003-4.119-0.008-12.688-46.08-83.025c-21.845-33.351-43.971-65.116-44.974-66.555
	c-2.434-3.637-1.821-8.541,1.407-11.183c3.493-2.861,8.668-2.357,11.532,1.128l44.526,54.176c1.939,2.36,5.152,3.252,8.029,2.218
	c2.876-1.031,4.795-3.756,4.795-6.811V146.727c0-5.715,4.65-10.364,10.365-10.364s10.364,4.649,10.364,10.364l-0.003,161.316
	c0,0.019,0-0.019,0,0l0,0c0,3.996,3.239,7.235,7.235,7.235s7.235-3.239,7.235-7.235v-63.201c0-0.019,0.003-0.037,0.003-0.056
	c0-5.715,4.649-10.365,10.364-10.365c5.706,0,10.349,4.635,10.364,10.337c0,0.009-0.001,0.019-0.001,0.028v63.257
	c0,3.996,3.239,7.235,7.235,7.235s7.235-3.239,7.235-7.235v-63.201c0-0.019,0.003-0.037,0.003-0.056
	c0-5.715,4.649-10.365,10.364-10.365c5.706,0,10.349,4.635,10.364,10.337c0,0.009-0.001,0.019-0.001,0.028v63.257
	c0,3.996,3.239,7.235,7.235,7.235c3.996,0,7.235-3.239,7.235-7.235v-63.201c0-0.019,0.003-0.037,0.003-0.056
	c0-5.715,4.65-10.365,10.364-10.365c5.715,0,10.364,4.65,10.364,10.365v3.692c0,0.216,0.009,0.43,0.028,0.642v100.868H406.835z"/>
<path d="M254.783,248.38c0-3.996-3.239-7.235-7.235-7.235H70.096c-30.673,0-55.626-24.954-55.626-55.626V72.424
	c0-30.673,24.954-55.626,55.626-55.626h14.213c3.996,0,7.235-3.239,7.235-7.235s-3.239-7.235-7.235-7.235H70.096
	C31.445,2.328,0,33.773,0,72.424v113.094c0,38.651,31.445,70.096,70.096,70.096h177.452
	C251.545,255.615,254.783,252.376,254.783,248.38z"/>
<path d="M441.904,2.328H135.705c-3.996,0-7.235,3.239-7.235,7.235s3.239,7.235,7.235,7.235h306.199
	c30.673,0,55.626,24.954,55.626,55.626v113.094c0,30.673-24.954,55.626-55.626,55.626c-3.996,0-7.235,3.239-7.235,7.235
	s3.239,7.235,7.235,7.235c38.651,0,70.096-31.445,70.096-70.096V72.424C512,33.773,480.555,2.328,441.904,2.328z"/>
<g>
</g>
<g>
</g>
<g>
</g>
<g>
</g>
<g>
</g>
<g>
</g>
<g>
</g>
<g>
</g>
<g>
</g>
<g>
</g>
<g>
</g>
<g>
</g>
<g>
</g>
<g>
</g>
<g>
</g>
</svg>
