<svg height="448pt" viewBox="-8 0 448 448.00001" width="448pt" xmlns="http://www.w3.org/2000/svg"><path d="m264 128h-16v-15.433594c-.105469-38.359375 15.144531-75.171875 42.34375-102.222656l11.3125 11.3125c-24.1875 24.058594-37.746094 56.796875-37.65625 90.910156zm0 0" fill="#a3783c"/><path d="m198.230469 94.910156c-29 .003906-55.511719 16.386719-68.488281 42.320313-6.40625 12.820312-9.742188 26.957031-9.742188 41.289062.003906 22.300781 4.738281 44.34375 13.886719 64.679688l27.554687 61.234375c8.628906 19.207031 27.726563 31.5625 48.78125 31.566406 5.753906 0 11.464844-.925781 16.921875-2.742188l28.855469-9.617187 28.855469 9.597656c5.457031 1.824219 11.167969 2.753907 16.921875 2.761719 21.054687.007812 40.15625-12.339844 48.796875-31.542969l27.539062-61.257812c9.148438-20.335938 13.882813-42.378907 13.886719-64.679688 0-14.332031-3.335938-28.46875-9.742188-41.289062-12.976562-25.933594-39.488281-42.316407-68.488281-42.320313-17.390625.007813-34.261719 5.933594-47.832031 16.800782l-9.9375 7.929687-9.9375-7.953125c-13.574219-10.859375-30.445312-16.777344-47.832031-16.777344zm0 0" fill="#ec4042"/><path d="m301.777344 336c21.054687.007812 40.15625-12.339844 48.796875-31.542969l27.539062-61.257812c9.148438-20.335938 13.882813-42.378907 13.886719-64.679688 0-14.332031-3.335938-28.46875-9.742188-41.289062-2.71875-5.3125-6.042968-10.289063-9.914062-14.832031 2.375 8.195312 3.605469 16.679687 3.65625 25.210937 0 22.308594-4.734375 44.363281-13.886719 64.710937l-27.554687 61.222657c-11.265625 25.035156-39.65625 37.480469-65.703125 28.800781l-28.855469-9.617188-28.855469 9.601563c-21.066406 7.03125-44.285156.273437-58.289062-16.96875l8.585937 19.082031c8.632813 19.203125 27.726563 31.554688 48.78125 31.558594zm0 0" fill="#d63333"/><path d="m208 448c-14.414062.007812-28.742188-2.234375-42.464844-6.640625l4.898438-15.199219c26.589844 8.519532 55.285156 7.757813 81.382812-2.167968l105.320313-40.160157 5.695312 14.953125-105.296875 40.09375c-15.820312 6.027344-32.605468 9.117188-49.535156 9.121094zm0 0" fill="#ccdde6"/><path d="m132.933594 428.285156 6.132812-14.769531 16.003906 6.644531-6.136718 14.769532zm0 0" fill="#ccdde6"/><path d="m190.191406 0c39.765625 0 72 32.234375 72 72-39.765625 0-72-32.234375-72-72zm0 0" fill="#8ac03f"/><path d="m81.257812 200.894531c-.839843-7.4375-1.257812-14.914062-1.257812-22.398437.023438-20.546875 4.804688-40.808594 13.96875-59.199219 12.148438-24.359375 32.433594-43.703125 57.34375-54.679687l6.398438 14.664062c-21.488282 9.476562-38.980469 26.175781-49.445313 47.199219-8.054687 16.167969-12.25 33.980469-12.265625 52.039062-.003906 6.878907.382812 13.75 1.152344 20.585938zm0 0" fill="#ccdde6"/><path d="m431.503906 192.566406-16-1.132812c.304688-4.269532.457032-8.570313.457032-12.914063-.027344-18.046875-4.230469-35.847656-12.28125-52-3.101563-6.210937-6.828126-12.085937-11.128907-17.535156l12.5625-9.921875c4.972657 6.3125 9.285157 13.117188 12.878907 20.304688 9.171874 18.371093 13.964843 38.617187 14.007812 59.152343 0 4.71875-.164062 9.402344-.496094 14.046875zm0 0" fill="#ccdde6"/><path d="m88 368.96875 70.742188 29.375c30.691406 12.5 64.980468 12.878906 95.9375 1.054688l123.585937-47.117188c5.363281-2.09375 9.671875-6.238281 11.964844-11.519531s2.382812-11.261719.25-16.609375c-2.039063-5.316406-6.140625-9.578125-11.375-11.8125-5.234375-2.238282-11.152344-2.257813-16.402344-.058594l-66.886719 28.398438c-3.695312 1.5-7.585937 2.457031-11.550781 2.839843 9.933594-2.214843 16.621094-11.542969 15.527344-21.664062-1.089844-10.125-9.613281-17.808594-19.792969-17.855469h-62.054688c-7.519531 0-14.9375-1.75-21.664062-5.113281-24.839844-12.421875-52.230469-18.886719-80-18.886719h-28.28125zm0 0" fill="#f2c09a"/><path d="m184 344c0-4.417969 3.582031-8 8-8h120c4.417969 0 8 3.582031 8 8s-3.582031 8-8 8h-120c-4.417969 0-8-3.582031-8-8zm0 0" fill="#e9937c"/><path d="m0 272h88v112h-88zm0 0" fill="#ccdde6"/></svg>