<?xml version="1.0"?>
<svg xmlns="http://www.w3.org/2000/svg" id="happy" enable-background="new 0 0 300 300" height="512px" viewBox="0 0 300 300" width="512px" class="hovered-paths"><g><path d="m206 222h-112c-39.703 0-72-32.297-72-72s32.297-72 72-72h112c4.422 0 8 3.578 8 8s-3.578 8-8 8h-112c-30.875 0-56 25.125-56 56s25.125 56 56 56h112c4.422 0 8 3.578 8 8s-3.578 8-8 8z" fill="#d8b400" data-original="#D8B400" class="active-path" style="fill:#74A82A" data-old_color="#d8b400"/><path d="m206 222c-39.703 0-72-32.297-72-72s32.297-72 72-72 72 32.297 72 72-32.297 72-72 72zm0-128c-30.875 0-56 25.125-56 56s25.125 56 56 56 56-25.125 56-56-25.125-56-56-56z" data-original="#000000" class="" style="fill:#000000"/><circle cx="190" cy="134" r="8" data-original="#000000" class="" style="fill:#000000"/><circle cx="222" cy="134" r="8" data-original="#000000" class="" style="fill:#000000"/><path d="m206 190c-17.648 0-32-14.352-32-32 0-4.422 3.578-8 8-8s8 3.578 8 8c0 8.82 7.18 16 16 16s16-7.18 16-16c0-4.422 3.578-8 8-8s8 3.578 8 8c0 17.648-14.352 32-32 32z" data-original="#000000" class="" style="fill:#000000"/></g> </svg>
