<?xml version="1.0"?>
<svg xmlns="http://www.w3.org/2000/svg" id="inclination" enable-background="new 0 0 300 300" height="512px" viewBox="0 0 300 300" width="512px" class="hovered-paths"><g><path d="m162 262h-24c-4.422 0-8-3.578-8-8v-208c0-4.422 3.578-8 8-8h24c4.422 0 8 3.578 8 8v208c0 4.422-3.578 8-8 8zm-16-16h8v-192h-8z" data-original="#000000"/><path d="m106 230h-72c-2.742 0-5.297-1.406-6.758-3.719-1.469-2.32-1.648-5.227-.469-7.703l72-152c1.602-3.383 5.328-5.203 8.984-4.383 3.649.821 6.243 4.063 6.243 7.805v152c0 4.422-3.578 8-8 8zm-59.359-16h51.359v-108.422z" data-original="#000000"/><path d="m266 230h-72c-4.422 0-8-3.578-8-8v-152c0-3.742 2.594-6.984 6.242-7.805 3.68-.82 7.383 1 8.984 4.383l72 152c1.18 2.477 1 5.383-.469 7.703-1.46 2.313-4.015 3.719-6.757 3.719zm-64-16h51.359l-51.359-108.422z" fill="#af16ef" data-original="#AF16EF" class="hovered-path active-path" style="fill:#74A82A" data-old_color="#af16ef"/></g> </svg>
