<svg height="512" viewBox="0 0 64 64" width="512" xmlns="http://www.w3.org/2000/svg" xmlns:xlink="http://www.w3.org/1999/xlink"><linearGradient id="New_Gradient_Swatch_2" gradientUnits="userSpaceOnUse" x1="39" x2="39" y1=".004" y2="62.995"><stop offset="0" stop-color="#fc5c7d"/><stop offset=".129" stop-color="#f35e85"/><stop offset=".343" stop-color="#d9659b"/><stop offset=".616" stop-color="#b070bf"/><stop offset=".934" stop-color="#777ff0"/><stop offset="1" stop-color="#6a82fb"/></linearGradient><linearGradient id="New_Gradient_Swatch_2-2" x1="49" x2="49" xlink:href="#New_Gradient_Swatch_2" y1=".004" y2="62.995"/><linearGradient id="New_Gradient_Swatch_2-4" x1="47" x2="47" xlink:href="#New_Gradient_Swatch_2" y1=".004" y2="63.004"/><linearGradient id="New_Gradient_Swatch_2-5" x1="24" x2="24" xlink:href="#New_Gradient_Swatch_2" y1=".004" y2="62.995"/><linearGradient id="New_Gradient_Swatch_2-7" x1="18" x2="18" xlink:href="#New_Gradient_Swatch_2" y1=".004" y2="62.995"/><linearGradient id="New_Gradient_Swatch_2-8" x1="59" x2="59" xlink:href="#New_Gradient_Swatch_2" y1=".004" y2="62.995"/><path d="m56 61v-53h1a1 1 0 0 0 1-1v-4a1 1 0 0 0 -1-1h-36a1 1 0 0 0 -1 1v4a1 1 0 0 0 1 1h1v24h2v-24h30v52h-12v2h13a1 1 0 0 0 1-1zm-33-55h-1v-2h34v2z" fill="url(#New_Gradient_Swatch_2)"/><path d="m49 29a3 3 0 1 0 3 3 3 3 0 0 0 -3-3zm0 4a1 1 0 1 1 1-1 1 1 0 0 1 -1 1z" fill="url(#New_Gradient_Swatch_2-2)"/><path d="m52 11a1 1 0 0 0 -1-1h-24a1 1 0 0 0 -1 1v21h2v-9h10v9h2v-9h10v4h2zm-24 10v-9h10v9zm12 0v-9h10v9z" fill="url(#New_Gradient_Swatch_2)"/><path d="m42 56v2h9a1 1 0 0 0 1-1v-20h-2v8h-8v2h8v9z" fill="url(#New_Gradient_Swatch_2-4)"/><path d="m11 62h26a3 3 0 0 0 3-3v-19h1a1 1 0 0 0 1-1v-4a1 1 0 0 0 -1-1h-34a1 1 0 0 0 -1 1v4a1 1 0 0 0 1 1h1v19a3 3 0 0 0 3 3zm27-3a1 1 0 0 1 -1 1h-26a1 1 0 0 1 -1-1v-19h28zm-30-23h32v2h-32z" fill="url(#New_Gradient_Swatch_2-5)"/><path d="m35 55h-2.059a9.012 9.012 0 0 0 -7.941-7.941v-2.059h-2v2.059a9.012 9.012 0 0 0 -7.941 7.941h-2.059v2h22zm-11-6a7 7 0 0 1 6.92 6h-13.84a7 7 0 0 1 6.92-6z" fill="url(#New_Gradient_Swatch_2-5)"/><path d="m17 12h2v16h-2z" fill="url(#New_Gradient_Swatch_2-7)"/><g fill="url(#New_Gradient_Swatch_2-8)"><path d="m58 29h2v24h-2z"/><path d="m58 55h2v2h-2z"/></g></svg>