<?xml version="1.0"?>
<svg xmlns="http://www.w3.org/2000/svg" id="Solid" height="512px" viewBox="0 0 512 512" width="512px" class=""><g><path d="m432 432a40.028 40.028 0 0 1 -.805 8h48.805v-16h-48z" data-original="#000000" class="active-path" data-old_color="#000000" fill="#FFFFFF"/><path d="m264 248v34.67a8 8 0 0 1 -14.4 4.8l-27.2-36.27-19.294 14.47 59.364 81.63a8 8 0 0 1 1.53 4.7v20.685l48.55-23.539a7.955 7.955 0 0 1 .98-1.851l59.364-81.625-19.294-14.47-27.2 36.27a8 8 0 0 1 -14.4-4.8v-34.67z" data-original="#000000" class="active-path" data-old_color="#000000" fill="#FFFFFF"/><path d="m432 392h32v16h-32z" data-original="#000000" class="active-path" data-old_color="#000000" fill="#FFFFFF"/><path d="m464 272a71.567 71.567 0 0 0 -45.828-67.087 8 8 0 0 1 -4.8-9.607 72.046 72.046 0 0 0 -60.742-90.792 8 8 0 0 1 -6.409-4.8 72.021 72.021 0 0 0 -133.015 1.357 8 8 0 0 1 -5.606 4.8 72.084 72.084 0 0 0 -52.132 92.274 8 8 0 0 1 -3.989 9.6 72.323 72.323 0 0 0 -13.129 8.61 8 8 0 0 1 5.65 7.645v42.828a103.865 103.865 0 0 1 77.176 77.172h19.114l-54.76-75.3a8 8 0 0 1 1.67-11.1l32-24a8 8 0 0 1 11.2 1.6l17.6 23.468v-18.668a8 8 0 0 1 8-8h64a8 8 0 0 1 8 8v18.668l17.6-23.468a8 8 0 0 1 11.2-1.6l32 24a8 8 0 0 1 1.67 11.1l-47.926 65.9 32-15.517a40.046 40.046 0 0 1 52.133 16.029 71.812 71.812 0 0 0 37.323-63.112zm-272-48h-16v-16h16zm0-32h-16v-16h16zm32 16h-16v-16h16zm136-40h-16v-16h16zm32 16h-16v-16h16zm0-32h-16v-16h16z" data-original="#000000" class="active-path" data-old_color="#000000" fill="#FFFFFF"/><path d="m376 424a8.009 8.009 0 0 0 -8 8v24h16v-24a8.009 8.009 0 0 0 -8-8z" data-original="#000000" class="active-path" data-old_color="#000000" fill="#FFFFFF"/><path d="m432 360h48v16h-48z" data-original="#000000" class="active-path" data-old_color="#000000" fill="#FFFFFF"/><path d="m248 380.443v-20.443h-24.317c.2 2.648.317 5.319.317 8a103.939 103.939 0 0 1 -3.17 25.616z" data-original="#000000" class="active-path" data-old_color="#000000" fill="#FFFFFF"/><path d="m404.742 334.74a23.876 23.876 0 0 0 -23.213-1.258l-209.019 101.343a8.045 8.045 0 0 0 -4.51 7.2v5.975a8.009 8.009 0 0 0 8 8h48v-24a24 24 0 0 1 48 0v24h16v-24a24 24 0 0 1 48 0v24h16v-24a24 24 0 0 1 48 0v22.624a24.039 24.039 0 0 0 16-22.624v-76.922a23.865 23.865 0 0 0 -11.258-20.338z" data-original="#000000" class="active-path" data-old_color="#000000" fill="#FFFFFF"/><path d="m208 368a88 88 0 1 0 -176 0 88.05 88.05 0 0 0 120.087 81.965c-.053-.649-.087-1.3-.087-1.965v-5.977a24.137 24.137 0 0 1 13.529-21.594l35.044-16.991a87.251 87.251 0 0 0 7.427-35.438zm-144 24h-16v-16h16zm0-32h-16v-16h16zm32 16h-16v-16h16z" data-original="#000000" class="active-path" data-old_color="#000000" fill="#FFFFFF"/><path d="m248 424a8.009 8.009 0 0 0 -8 8v24h16v-24a8.009 8.009 0 0 0 -8-8z" data-original="#000000" class="active-path" data-old_color="#000000" fill="#FFFFFF"/><path d="m48.67 216.67a56.135 56.135 0 0 0 46.66 46.66 56.135 56.135 0 0 0 -46.66-46.66z" data-original="#000000" class="active-path" data-old_color="#000000" fill="#FFFFFF"/><path d="m128 264.329v-32.329h-16v32.316c2.652-.2 5.323-.316 8-.316s5.345.124 8 .329z" data-original="#000000" class="active-path" data-old_color="#000000" fill="#FFFFFF"/><path d="m312 424a8.009 8.009 0 0 0 -8 8v24h16v-24a8.009 8.009 0 0 0 -8-8z" data-original="#000000" class="active-path" data-old_color="#000000" fill="#FFFFFF"/></g> </svg>
