<svg xmlns="http://www.w3.org/2000/svg" viewBox="0 0 2192.61 1887.56"><defs><style>.cls-1{isolation:isolate;}.cls-2{fill:#534267;}.cls-3{fill:#fff;mix-blend-mode:soft-light;}.cls-4{fill:#c7b0c2;}.cls-4,.cls-6,.cls-8{mix-blend-mode:multiply;}.cls-5{fill:#a8c044;}.cls-6{fill:#dcdead;}.cls-7{fill:#c24543;}.cls-8{fill:#d8c4d4;}.cls-9{fill:#d6832c;}.cls-10{fill:#cd7128;}.cls-11{fill:#e4b47a;}.cls-12{fill:#be6626;}.cls-13{fill:#74a72a;}</style></defs><title>dairo 2</title><g class="cls-1"><g id="Capa_2" data-name="Capa 2"><path class="cls-2" d="M149,578.37c14.88-57.52,47.16-90.88,81.42-111,45.89-26.95,97.31-27.15,134.15-.51,52.47,37.92,133.89,159,231.8,238.89,82,66.8,179.56,75.15,219.36,163,47,103.69,4.47,174-90.41,226.59-118.79,65.86-218.63,14.15-302.76-62.55C325.66,944.37,110.59,726.87,149,578.37Z" transform="translate(-136.6 -58.35)"/><path class="cls-3" d="M552.57,733.86c-13.07,10-31.16,13.75-46.64,7.25-29.75-12.49-43.65-46.06-61.91-70.34-11.53-15.31-23.92-30.77-38.26-43.58-13-11.62-28.23-20.16-43.82-27.84-16.79-8.3-32.29-16.31-45.22-30.26-3.29-3.56-6.41-7.27-9.4-11.05,2.17-1.48,4.37-2.89,6.57-4.18,30.09-17.7,63.81-17.82,88-.35,34.41,24.86,87.8,104.29,152,156.63q5.71,4.65,11.55,8.75A52.53,52.53,0,0,1,552.57,733.86Z" transform="translate(-136.6 -58.35)"/><path class="cls-4" d="M149,578.37c.22-.83.47-1.62.7-2.46,14.54,24.61,30.5,48.43,46.38,72.15,53.23,79.48,112.37,159.46,190.71,216.1,43.26,31.29,85.15,65.11,131.81,91.34,43.62,24.53,97.5,47.61,148.7,43.66,48.87-3.76,94.08-31.57,122.37-71.24,11.64-16.31,24.93-36.14,27-57,45.34,102.45,2.81,172.11-91.38,224.33-118.79,65.86-218.63,14.15-302.76-62.55C325.66,944.37,110.59,726.87,149,578.37Z" transform="translate(-136.6 -58.35)"/><path class="cls-5" d="M223.94,476.7S207,413.94,166.56,392c0,0,16.45-24.66,56.63-20.77,0,0,18.86,69.78,32.23,85.73Z" transform="translate(-136.6 -58.35)"/><path class="cls-6" d="M166.56,392s4.82-7.21,15.57-13.19c0,0,24.86,34.09,33.28,46.48,10.46,15.34,31.86,29.05,39.66,31.23.11.14.23.3.35.44L223.94,476.7S207,413.94,166.56,392Z" transform="translate(-136.6 -58.35)"/><path class="cls-5" d="M326.48,449s57.78,43.45,59.8,81.53c0,0-49.32-31.72-83.7-30.31,0,0,26,34.31,19.79,64.5,0,0-45.07-35.26-77.65-30.09,0,0-16.75,28.72-3.36,58.74,0,0-47.43-7.5-37.54-58.91,0,0-36,51.63-7.46,101.54,0,0-43.41-26.24-42.73-73.13C153.63,562.83,191.85,428.05,326.48,449Z" transform="translate(-136.6 -58.35)"/><path class="cls-6" d="M153.63,562.83S162.8,530.48,188,500c-2.78,12.09-3.39,25.46,1.05,36.25.6,1.46,13.16-9.25,19.74-11.75,2.85,9.24,5.88,19.2,15,23.94,1.17.63,4.32-14.14,4.87-20.63.36-4.39.2-15.56,7.62-15.73a49.76,49.76,0,0,1,12.48,1.16c12.66,3,38,13.42,38.12,12.3.84-8.55-2.22-16.35-5.68-24.05-1.85-4.09-3.92-8.1-6-12.09-1.44-2.77-5.73-7.29,1.61-7.42,2-.09,4-.06,6,0,13.7-.09,26.88-.36,40.22,3.32,6.51,1.79,26.16,4.8,25.71,3.78-7.85-17.88-22-30-36.86-41.78,4.75.36,9.61.89,14.62,1.67,0,0,57.78,43.45,59.8,81.53,0,0-49.32-31.72-83.7-30.31,0,0,26,34.31,19.79,64.5,0,0-45.07-35.26-77.65-30.09,0,0-16.75,28.72-3.36,58.74,0,0-47.43-7.5-37.54-58.91,0,0-36,51.63-7.46,101.54C196.36,636,153,609.72,153.63,562.83Z" transform="translate(-136.6 -58.35)"/><path class="cls-7" d="M1068.88,830.72c0,178.61-114.7,282.16-285.79,282.16S496,1010.22,496,831.6c0-120.13,37.81-202.09,131.19-252.17,111.57-59.86,217.44-50.24,301.36-5.35C1010.81,618.09,1068.88,692.56,1068.88,830.72Z" transform="translate(-136.6 -58.35)"/><path class="cls-3" d="M594.23,846.41c34.73-9.52,50.4-33.89,50.23-69.62-.2-38.27-8-74.31,9.48-110.18C663,648,677.35,630.76,684,611.18c.15-.44.26-.87.4-1.3A272.86,272.86,0,0,0,629,632.41c-69.59,37.33-97.77,98.41-97.77,187.94a285.71,285.71,0,0,0,1.66,30.48C553.49,851.88,574.5,851.82,594.23,846.41Z" transform="translate(-136.6 -58.35)"/><path class="cls-8" d="M928.51,574.08c-38.9-20.81-82.53-34-129.26-36.26,2.7,1.22,5.41,2.48,8.08,3.79,44.82,21.85,94.11,49,127,87.37,27.8,32.43,44.94,71.4,51.74,113.53,7.28,45.1,10.48,94.41-2.27,138.82s-37,83.48-72.74,112.76c-37.52,30.72-111.22,44.43-158.47,45.75-149.33,4.21-195.72-65.74-241-103.39,37.09,113.32,137.37,176.43,271.47,176.43,171.09,0,285.79-103.55,285.79-282.16C1068.88,692.56,1010.81,618.09,928.51,574.08Z" transform="translate(-136.6 -58.35)"/><path class="cls-5" d="M804,544.14s-4.73-82.21,27.91-134c0,0-35.19-17.92-79.34,12.79,0,0,28.78,93.33,23.67,120.57Z" transform="translate(-136.6 -58.35)"/><path class="cls-6" d="M831.93,410.1s-10.3-5.23-26.69-5.19c0,0-5.34,56-8.39,75.74C795,492.33,784,535.12,776.36,542.72c0,.24-.05.52-.1.74l27.76.68S799.29,461.93,831.93,410.1Z" transform="translate(-136.6 -58.35)"/><path class="cls-5" d="M876.42,551.91c50.24,16.82,65.63,85.22,65.63,85.22-11.4-15.67-68.39-47.74-68.39-47.74,6.23,33.32-14.06,68.8-14.06,68.8-33.14-51-66.8-71.82-66.8-71.82-41.15,15-87.64,67.87-87.64,67.87A357,357,0,0,1,713.71,588c-63.58,5.88-90.84,34.74-90.84,34.74,14.43-43.82,50.93-64.48,50.93-64.48S765.55,514.78,876.42,551.91Z" transform="translate(-136.6 -58.35)"/><path class="cls-6" d="M942.05,637.13s-15.39-68.4-65.63-85.22c-1.2-.4-2.41-.75-3.61-1.13,8.36,10.11,17.8,21.49,19.59,34.41.25,1.86-26.14-11.54-33.18-11.11-4.54.27-1.05,49-5.69,47.91-10.25-2.36-21.9-15.07-28.54-22.28-10.25-11.09-31.31-31.51-40.94-27.77-14.8,5.76-51.72,35.09-52.53,31.71-1.49-6.23-5.17-29.75-5.17-29.75s-56.62,11.34-56.12,9.71c2.54-8.19,5.06-17.72,5.09-26.06-1,.42-1.52.68-1.52.68s-36.5,20.66-50.93,64.48c0,0,27.26-28.86,90.84-34.74a357,357,0,0,0-8.55,66.27s46.49-52.91,87.64-67.87c0,0,33.66,20.84,66.8,71.82,0,0,20.29-35.48,14.06-68.8C873.66,589.39,930.65,621.46,942.05,637.13Z" transform="translate(-136.6 -58.35)"/><polygon class="cls-5" points="2013.51 561.63 1992.52 528.78 2153.22 418.36 2181.84 463.16 2013.51 561.63"/><polygon class="cls-5" points="2167.76 441.13 2005.13 548.51 2013.51 561.63 2181.84 463.16 2167.76 441.13"/><path class="cls-5" d="M2329.21,568.84l-1.68,64.56s-128.65-12-239.82,23.23l-9.14-27.92S2237.74,571.94,2329.21,568.84Z" transform="translate(-136.6 -58.35)"/><path class="cls-5" d="M2327.53,633.4l.91-35.09h0s-107.12-4.43-245.37,44.16l4.64,14.16C2198.88,621.41,2327.53,633.4,2327.53,633.4Z" transform="translate(-136.6 -58.35)"/><path class="cls-5" d="M2251.35,447l-59.41-25.78s-43.5,121.27-122.53,206.8l21.52,20.06S2209.85,528.29,2251.35,447Z" transform="translate(-136.6 -58.35)"/><path class="cls-5" d="M2191.94,421.2l32.29,14h0s-41.27,98.64-143.9,203L2069.41,628C2148.45,542.47,2191.94,421.2,2191.94,421.2Z" transform="translate(-136.6 -58.35)"/><path class="cls-9" d="M2119.22,811.74c66.39-54.79,90.42-154.5,39.52-234.14s-151.69-100.1-229.58-63.3c-160.41,75.79-612.34,497-566.54,568.71S1982.49,924.6,2119.22,811.74Z" transform="translate(-136.6 -58.35)"/><path class="cls-10" d="M2119.22,811.74c66.39-54.79,90.42-154.5,39.52-234.14a174.25,174.25,0,0,0-26.86-32.38c34.89,75.49,9.79,163-50.86,213.06-119.12,98.31-570.1,285.58-714.61,284.81-7.54,17.55-9.3,31.29-3.79,39.92C1408.43,1154.69,1982.49,924.6,2119.22,811.74Z" transform="translate(-136.6 -58.35)"/><path class="cls-11" d="M1868.73,603.9l-83.45,70.67c-8,6.77-16.12,13.68-21.82,22.37s-8.68,19.58-5.42,29c5.15,14.89,24.58,21,40.47,16.52s28.5-16.78,38.59-29.77,18.62-27.27,30.56-38.69c13.54-13,30.69-21.5,47.52-29.84l82-40.6c11.65-5.77,23.72-11.86,31.85-21.9s11-25.25,3-34.69c-26.82-12.59-60.06-8.3-88.06,4.33S1892.15,584.07,1868.73,603.9Z" transform="translate(-136.6 -58.35)"/><path class="cls-12" d="M1993.19,598.6c6.1,10.18,12.79,19.22,18,27.16L2029,652s-5.49-11.43-13.74-28.58c-4-8.64-9.16-18.32-13.72-29.33L1986.69,560c-9-20.31-17.32-40.94-24.2-57.5a185,185,0,0,0-23.47,7.7c9.63,16,21.66,36.54,34.46,56.78Z" transform="translate(-136.6 -58.35)"/><path class="cls-12" d="M2039.72,780.46,2015,752.66c-8.08-8.78-14.69-17.55-20.86-24.8l-20.17-24.5,16.33,27.15c5,8.06,10.41,17.92,17.08,27.74l20.45,31.19c13.79,21.37,28.35,42.17,39,58l.37.54c7.62-4.71,14.85-9.33,21.55-13.83l-2.07-2.22C2073.86,817.92,2056.41,799.48,2039.72,780.46Z" transform="translate(-136.6 -58.35)"/><path class="cls-12" d="M1927.93,869.52,1907.75,845l16.33,27.14c5,8.07,10.41,17.93,17.09,27.75l8,12.2c3.61-1.78,7.17-3.55,10.73-5.33-3.78-4.23-7.51-8.42-11.11-12.47C1940.71,885.54,1934.09,876.77,1927.93,869.52Z" transform="translate(-136.6 -58.35)"/><path class="cls-12" d="M1819.64,876.66c-7.78-9-14.09-18-20-25.47L1780.32,826l15.4,27.68c4.74,8.23,9.79,18.28,16.13,28.31,6.18,10.17,12.78,21,19.38,31.86,8.63,14.44,17.59,28.6,25.6,41.25q10.55-4.67,21-9.37c-10.49-12.15-22.62-26.16-34.36-40.49Z" transform="translate(-136.6 -58.35)"/><path class="cls-12" d="M1702.61,961.81l-19.32-25.15,15.4,27.68c4.74,8.23,9.8,18.27,16.13,28.31,3.34,5.48,6.8,11.18,10.31,17q6.06-2.34,12.13-4.7l-14.65-17.61C1714.84,978.25,1708.53,969.27,1702.61,961.81Z" transform="translate(-136.6 -58.35)"/><path class="cls-12" d="M1634.59,1028.79l-19.33-25.16,15.4,27.69c1.88,3.25,3.84,6.85,5.87,10.56l6.41-2.2C1640,1035.84,1637.25,1032.14,1634.59,1028.79Z" transform="translate(-136.6 -58.35)"/><path class="cls-12" d="M1479.81,1046l-19.33-25.15,15.4,27.68c4.75,8.23,9.8,18.27,16.14,28.31l4,6.49q5.63-1.3,11.42-2.73l-7.59-9.12C1492,1062.48,1485.72,1053.5,1479.81,1046Z" transform="translate(-136.6 -58.35)"/><path class="cls-12" d="M1848.83,681.1c6.11,10.18,12.79,19.22,18,27.17l17.77,26.22s-5.49-11.43-13.74-28.58c-4-8.63-9.16-18.31-13.72-29.32l-14.81-34.13c-8.95-20.21-17.24-40.75-24.1-57.27q-9.51,7.06-19.32,14.55c8.83,14.74,19.23,32.34,30.22,49.7C1835.83,660.22,1842.54,671,1848.83,681.1Z" transform="translate(-136.6 -58.35)"/><path class="cls-12" d="M1648.59,784c6.1,10.18,12.79,19.22,18,27.17l17.77,26.22s-5.5-11.43-13.74-28.58c-4-8.64-9.16-18.32-13.73-29.33l-14.8-34.12q-2.23-5-4.4-10.08-6.21,5.65-12.4,11.34c1.19,1.91,2.38,3.81,3.59,5.72Z" transform="translate(-136.6 -58.35)"/><path class="cls-12" d="M1508.55,952.86l17.78,26.23s-5.5-11.43-13.74-28.58c-4-8.64-9.17-18.32-13.73-29.33l-14.8-34.13-.15-.32q-5.31,5.76-10.48,11.45l17.13,27.52C1496.66,935.88,1503.35,944.92,1508.55,952.86Z" transform="translate(-136.6 -58.35)"/><path class="cls-12" d="M2119.22,811.74a184.47,184.47,0,0,0,45-55.41c-60.47,51.15-537.45,329.14-804.61,310h0c-.71,6.75.21,12.38,3,16.72C1408.43,1154.69,1982.49,924.6,2119.22,811.74Z" transform="translate(-136.6 -58.35)"/></g><g id="Capa_1" data-name="Capa 1"><path class="cls-13" d="M136.6,1053.42V914.93c1.67-.51,1.18-2,1.47-3.18,8-31.48,32.22-50.56,64.64-50.57q443.32,0,886.66,0c1.75,0,3.77-.82,5.74,1.25q-13.63,21.18-27.28,42.37c-16.61,25.72-10.44,55.37,15.21,71.95q86.49,55.9,173.11,111.62c25.68,16.51,55.38,9.91,71.86-15.7q65.6-101.94,131.07-204c3.7-5.78,7.54-7.74,14.32-7.74q359.34.29,718.68.16c2.35,0,4.71,0,7.05.05a63.89,63.89,0,0,1,60,47.43c.58,2.1,0,4.75,2.28,6.28v138.49c-1.33.41-1.13,1.6-1.36,2.59-7.83,32.31-31.81,51.21-65.2,51.3-22.86.06-45.73.16-68.59-.1-4.77-.06-6.39,1.45-7.57,6q-91.35,357.7-183.19,715.26c-15.32,59.39-54.28,96.76-113.46,112.86-7.29,2-14.84,3.05-22.27,4.54H594.39c-.7-1.48-2.13-1.1-3.33-1.3-67-11-111.74-48.5-130.08-114-26.57-94.9-51.32-190.3-76.8-285.5q-57.82-216-115.5-432.13c-1.22-4.58-3.2-5.85-7.8-5.79-20.08.26-40.18.22-60.26.07-30.09-.23-54.5-19.53-62.14-48.76C138,1056.82,138.76,1054.54,136.6,1053.42Zm628.55,439.76q0-96.43,0-192.88c0-25.29-16.45-41.8-41.55-41.9q-35.25-.14-70.49,0c-24.67.1-41.54,16.6-41.57,41.41q-.19,192.89,0,385.77c0,25.44,17,42,42.38,42.1,22.42.07,44.87-.54,67.28.17,26,.82,44.59-18.29,44.26-44.36C764.6,1620.07,765.15,1556.62,765.15,1493.18Zm849.92-7.65q0,96.45,0,192.91c0,25.59,16.46,42.06,42,42.15q34.61.12,69.21,0c25.88-.08,42.42-16.64,42.42-42.53q0-191.94,0-383.89c0-26.18-16.72-42.93-42.8-43q-33.32-.06-66.65,0c-28,0-44.24,16.1-44.25,44Q1615.05,1390.37,1615.07,1485.53Zm-329.73,7.74q0,96.17,0,192.33c0,25.42,16.68,42,42.21,42.09,22.23.07,44.45,0,66.68,0,28.43,0,44.61-16,44.67-44.36,0-24.37,0-48.73,0-73.09q0-154.18,0-308.37c0-27.36-16.2-43.47-43.39-43.5-22.23,0-44.49.75-66.67-.21-25.12-1.08-44.15,18.19-43.79,44C1285.93,1365.89,1285.34,1429.59,1285.34,1493.27Zm-179.22,0q0-96.48,0-193c0-25.24-16.47-41.8-41.61-41.89q-34.93-.12-69.88,0c-25.43.08-42.12,16.64-42.14,42.21q-.11,192.35,0,384.67c0,25.73,17,42.36,42.77,42.42q33.65.08,67.31,0c27.21,0,43.54-16.29,43.55-43.38Q1106.14,1588.79,1106.12,1493.26Z" transform="translate(-136.6 -58.35)"/><path class="cls-13" d="M1661.27,58.35c22.43,11.43,42.66,26.41,63.81,39.88,39.21,25,78.19,50.28,117.25,75.47,15.45,10,17.8,20.81,8,36.06-2,3.05-3.84,6.15-5.81,9.2q-229.07,355.76-458.14,711.52-40.68,63.18-81.45,126.34c-9.22,14.29-20.41,16.61-34.72,7.39q-85.22-54.95-170.41-109.89c-14.62-9.44-17.15-20.66-7.83-35.15Q1225.55,711.56,1359.22,504q138.89-215.65,277.72-431.33c4.53-7.06,10.2-11.71,17.92-14.28ZM1231,858.26c-1.92,0-3.85,0-5.76,0-41,1.19-71.09,38.6-63,78.32,6.26,30.72,35,52.11,69.43,51.71a66.26,66.26,0,0,0,65.82-66.11C1297.68,890.85,1270,858.41,1231,858.26Z" transform="translate(-136.6 -58.35)"/></g></g></svg>