<?xml version="1.0" encoding="UTF-8" standalone="no"?>
<svg
   xmlns:dc="http://purl.org/dc/elements/1.1/"
   xmlns:cc="http://creativecommons.org/ns#"
   xmlns:rdf="http://www.w3.org/1999/02/22-rdf-syntax-ns#"
   xmlns:svg="http://www.w3.org/2000/svg"
   xmlns="http://www.w3.org/2000/svg"
   xmlns:sodipodi="http://sodipodi.sourceforge.net/DTD/sodipodi-0.dtd"
   xmlns:inkscape="http://www.inkscape.org/namespaces/inkscape"
   viewBox="0 0 2192.61 1887.56"
   version="1.1"
   id="svg84"
   sodipodi:docname="LogoBlanco.svg"
   inkscape:version="0.92.4 (5da689c313, 2019-01-14)">
  <metadata
     id="metadata88">
    <rdf:RDF>
      <cc:Work
         rdf:about="">
        <dc:format>image/svg+xml</dc:format>
        <dc:type
           rdf:resource="http://purl.org/dc/dcmitype/StillImage" />
      </cc:Work>
    </rdf:RDF>
  </metadata>
  <sodipodi:namedview
     pagecolor="#ffffff"
     bordercolor="#666666"
     borderopacity="1"
     objecttolerance="10"
     gridtolerance="10"
     guidetolerance="10"
     inkscape:pageopacity="0"
     inkscape:pageshadow="2"
     inkscape:window-width="1858"
     inkscape:window-height="1057"
     id="namedview86"
     showgrid="false"
     inkscape:zoom="0.25005827"
     inkscape:cx="1561.3243"
     inkscape:cy="508.10422"
     inkscape:window-x="54"
     inkscape:window-y="-8"
     inkscape:window-maximized="1"
     inkscape:current-layer="svg84" />
  <defs
     id="defs4">
    <style
       id="style2">.cls-1{isolation:isolate;}.cls-2{fill:#534267;}.cls-3,.cls-8{fill:#fff;mix-blend-mode:soft-light;}.cls-3{opacity:0.49;}.cls-4{fill:#c7b0c2;opacity:0.57;}.cls-4,.cls-6,.cls-9{mix-blend-mode:multiply;}.cls-5{fill:#a8c044;}.cls-6{fill:#dcdead;}.cls-7{fill:#c24543;}.cls-8{opacity:0.58;}.cls-9{fill:#d8c4d4;}.cls-10{fill:#d6832c;}.cls-11{fill:#cd7128;}.cls-12{fill:#e4b47a;}.cls-13{fill:#be6626;}.cls-14{fill:#74a72a;}</style>
  </defs>
  <title
     id="title6">dairo 3</title>
  <g
     class="cls-1"
     id="g82"
     style="isolation:isolate;fill:#ffffff"
     transform="translate(2)">
    <g
       id="Capa_2"
       data-name="Capa 2"
       style="fill:#ffffff">
      <path
         class="cls-2"
         d="m 126.11,643 c 14.88,-57.52 47.16,-90.88 81.42,-111 45.89,-27 97.31,-27.15 134.15,-0.52 52.47,37.93 133.9,159 231.8,238.9 81.95,66.8 179.56,75.15 219.36,163 47,103.69 4.47,174 -90.41,226.59 -118.79,65.86 -218.63,14.14 -302.76,-62.55 C 302.77,1009 87.7,791.49 126.11,643 Z"
         transform="translate(-113.72,-122.98)"
         id="path8"
         inkscape:connector-curvature="0"
         style="fill:#ffffff" />
      <path
         class="cls-3"
         d="m 529.68,798.49 c -13.07,10 -31.15,13.74 -46.64,7.24 -29.75,-12.49 -43.65,-46.05 -61.91,-70.33 -11.53,-15.31 -23.92,-30.77 -38.26,-43.58 -13,-11.62 -28.23,-20.16 -43.82,-27.84 -16.79,-8.3 -32.29,-16.31 -45.21,-30.26 -3.3,-3.56 -6.42,-7.27 -9.41,-11.05 2.17,-1.48 4.37,-2.9 6.57,-4.19 30.09,-17.69 63.81,-17.81 88,-0.34 34.41,24.86 87.8,104.29 152,156.63 3.81,3.1 7.66,6 11.55,8.75 a 52.53,52.53 0 0 1 -12.87,14.97 z"
         transform="translate(-113.72,-122.98)"
         id="path10"
         inkscape:connector-curvature="0"
         style="opacity:0.49000005;mix-blend-mode:soft-light;fill:#ffffff" />
      <path
         class="cls-4"
         d="m 126.11,643 c 0.22,-0.83 0.47,-1.63 0.7,-2.47 14.54,24.62 30.5,48.44 46.38,72.16 53.24,79.47 112.37,159.45 190.71,216.09 43.27,31.29 85.15,65.11 131.82,91.35 43.61,24.53 97.49,47.6 148.69,43.66 48.87,-3.77 94.08,-31.57 122.38,-71.25 11.63,-16.31 24.92,-36.13 27,-57 45.34,102.45 2.81,172.11 -91.38,224.33 -118.79,65.86 -218.63,14.14 -302.76,-62.55 C 302.77,1009 87.7,791.49 126.11,643 Z"
         transform="translate(-113.72,-122.98)"
         id="path12"
         inkscape:connector-curvature="0"
         style="opacity:0.56999966;mix-blend-mode:multiply;fill:#ffffff" />
      <path
         class="cls-5"
         d="m 201.05,541.33 c 0,0 -17,-62.76 -57.38,-84.69 0,0 16.46,-24.65 56.63,-20.77 0,0 18.86,69.79 32.23,85.74 z"
         transform="translate(-113.72,-122.98)"
         id="path14"
         inkscape:connector-curvature="0"
         style="fill:#ffffff" />
      <path
         class="cls-6"
         d="m 143.67,456.64 c 0,0 4.82,-7.2 15.57,-13.19 0,0 24.86,34.1 33.28,46.48 10.48,15.35 31.86,29.07 39.66,31.24 0.11,0.13 0.23,0.3 0.35,0.44 l -31.48,19.72 c 0,0 -16.99,-62.76 -57.38,-84.69 z"
         transform="translate(-113.72,-122.98)"
         id="path16"
         inkscape:connector-curvature="0"
         style="mix-blend-mode:multiply;fill:#ffffff" />
      <path
         class="cls-5"
         d="m 303.59,513.59 c 0,0 57.78,43.41 59.81,81.53 0,0 -49.33,-31.73 -83.71,-30.31 0,0 26,34.31 19.79,64.5 0,0 -45.07,-35.26 -77.65,-30.1 0,0 -16.75,28.73 -3.36,58.74 0,0 -47.43,-7.49 -37.54,-58.91 0,0 -36,51.64 -7.46,101.54 0,0 -43.41,-26.23 -42.73,-73.12 0,0 38.26,-134.78 172.85,-113.87 z"
         transform="translate(-113.72,-122.98)"
         id="path18"
         inkscape:connector-curvature="0"
         style="fill:#ffffff" />
      <path
         class="cls-6"
         d="m 130.74,627.46 c 0,0 9.17,-32.35 34.37,-62.89 -2.77,12.1 -3.39,25.46 1,36.26 0.6,1.45 13.16,-9.25 19.74,-11.75 2.85,9.24 5.88,19.2 14.95,23.94 1.17,0.62 4.32,-14.15 4.87,-20.63 0.36,-4.39 0.21,-15.56 7.63,-15.74 a 49.72,49.72 0 0 1 12.47,1.16 c 12.66,3 38,13.43 38.12,12.31 0.84,-8.55 -2.22,-16.35 -5.68,-24 -1.85,-4.09 -3.92,-8.11 -6,-12.09 -1.44,-2.77 -5.73,-7.29 1.61,-7.42 2,-0.09 4,-0.07 6,0 13.7,-0.09 26.88,-0.37 40.22,3.32 6.51,1.79 26.16,4.8 25.71,3.78 -7.85,-17.88 -22,-30 -36.86,-41.79 4.75,0.37 9.61,0.89 14.62,1.68 0,0 57.78,43.45 59.81,81.53 0,0 -49.33,-31.73 -83.71,-30.31 0,0 26,34.31 19.79,64.5 0,0 -45.07,-35.26 -77.65,-30.1 0,0 -16.75,28.73 -3.36,58.74 0,0 -47.43,-7.49 -37.54,-58.91 0,0 -36,51.64 -7.46,101.54 0.08,-0.01 -43.33,-26.24 -42.65,-73.13 z"
         transform="translate(-113.72,-122.98)"
         id="path20"
         inkscape:connector-curvature="0"
         style="mix-blend-mode:multiply;fill:#ffffff" />
      <path
         class="cls-7"
         d="m 1046,895.35 c 0,178.61 -114.7,282.16 -285.79,282.16 -171.09,0 -287.14,-102.66 -287.14,-281.28 0,-120.14 37.81,-202.1 131.19,-252.18 C 715.83,584.2 821.7,593.82 905.62,638.7 987.92,682.72 1046,757.19 1046,895.35 Z"
         transform="translate(-113.72,-122.98)"
         id="path22"
         inkscape:connector-curvature="0"
         style="fill:#ffffff" />
      <path
         class="cls-8"
         d="m 571.34,911 c 34.73,-9.52 50.41,-33.89 50.23,-69.63 -0.19,-38.26 -8,-74.3 9.49,-110.17 9.05,-18.6 23.41,-35.86 30.08,-55.43 0.15,-0.44 0.26,-0.87 0.4,-1.31 A 272.92,272.92 0 0 0 606.1,697 c -69.59,37.32 -97.77,98.41 -97.77,187.94 a 285.37,285.37 0 0 0 1.67,30.51 c 20.6,1.06 41.61,0.99 61.34,-4.45 z"
         transform="translate(-113.72,-122.98)"
         id="path24"
         inkscape:connector-curvature="0"
         style="opacity:0.57999998;mix-blend-mode:soft-light;fill:#ffffff" />
      <path
         class="cls-9"
         d="m 905.62,638.7 c -38.9,-20.81 -82.53,-34 -129.26,-36.25 2.7,1.22 5.41,2.48 8.08,3.79 44.82,21.85 94.11,49 127,87.37 27.8,32.43 44.94,71.4 51.74,113.53 7.28,45.09 10.48,94.41 -2.27,138.82 -12.75,44.41 -37,83.48 -72.73,112.76 -37.53,30.72 -111.23,44.43 -158.48,45.75 -149.33,4.21 -195.72,-65.75 -241,-103.39 37.09,113.32 137.37,176.43 271.47,176.43 C 931.29,1177.51 1046,1074 1046,895.35 1046,757.19 987.92,682.72 905.62,638.7 Z"
         transform="translate(-113.72,-122.98)"
         id="path26"
         inkscape:connector-curvature="0"
         style="mix-blend-mode:multiply;fill:#ffffff" />
      <path
         class="cls-5"
         d="m 781.13,608.77 c 0,0 -4.73,-82.21 27.91,-134 0,0 -35.19,-17.92 -79.34,12.79 0,0 28.78,93.33 23.67,120.57 z"
         transform="translate(-113.72,-122.98)"
         id="path28"
         inkscape:connector-curvature="0"
         style="fill:#ffffff" />
      <path
         class="cls-6"
         d="m 809,474.73 c 0,0 -10.3,-5.23 -26.69,-5.19 0,0 -5.34,56 -8.39,75.73 -1.81,11.69 -12.84,54.48 -20.49,62.08 a 5.74,5.74 0 0 1 -0.1,0.74 l 27.76,0.68 c 0,0 -4.69,-82.21 27.91,-134.04 z"
         transform="translate(-113.72,-122.98)"
         id="path30"
         inkscape:connector-curvature="0"
         style="mix-blend-mode:multiply;fill:#ffffff" />
      <path
         class="cls-5"
         d="m 853.53,616.54 c 50.24,16.82 65.63,85.22 65.63,85.22 C 907.76,686.09 850.77,654 850.77,654 c 6.23,33.32 -14.06,68.79 -14.06,68.79 -33.14,-51 -66.8,-71.81 -66.8,-71.81 -41.15,15 -87.64,67.86 -87.64,67.86 a 356.42,356.42 0 0 1 8.56,-66.26 c -63.59,5.9 -90.83,34.76 -90.83,34.76 14.43,-43.82 50.93,-64.48 50.93,-64.48 0,0 91.73,-43.45 202.6,-6.32 z"
         transform="translate(-113.72,-122.98)"
         id="path32"
         inkscape:connector-curvature="0"
         style="fill:#ffffff" />
      <path
         class="cls-6"
         d="m 919.16,701.76 c 0,0 -15.39,-68.4 -65.63,-85.22 -1.2,-0.4 -2.4,-0.75 -3.61,-1.13 8.36,10.1 17.8,21.49 19.59,34.4 0.25,1.86 -26.14,-11.53 -33.18,-11.11 -4.54,0.28 -1.05,49 -5.69,47.92 -10.25,-2.36 -21.9,-15.07 -28.53,-22.28 -10.26,-11.1 -31.32,-31.51 -40.94,-27.77 -14.81,5.76 -51.73,35.09 -52.54,31.7 -1.49,-6.22 -5.17,-29.75 -5.17,-29.75 0,0 -56.61,11.34 -56.12,9.71 2.54,-8.18 5.06,-17.71 5.09,-26.06 -1,0.43 -1.52,0.69 -1.52,0.69 0,0 -36.5,20.66 -50.93,64.48 0,0 27.26,-28.86 90.85,-34.74 a 356.42,356.42 0 0 0 -8.56,66.26 c 0,0 46.49,-52.86 87.64,-67.86 0,0 33.66,20.83 66.8,71.81 0,0 20.29,-35.47 14.06,-68.79 0,-0.02 56.99,32.07 68.39,47.74 z"
         transform="translate(-113.72,-122.98)"
         id="path34"
         inkscape:connector-curvature="0"
         style="mix-blend-mode:multiply;fill:#ffffff" />
      <polygon
         class="cls-5"
         points="2181.84,463.16 2013.51,561.63 1992.52,528.78 2153.22,418.36 "
         id="polygon36"
         style="fill:#ffffff" />
      <polygon
         class="cls-5"
         points="2181.84,463.16 2167.76,441.13 2005.13,548.51 2013.51,561.63 "
         id="polygon38"
         style="fill:#ffffff" />
      <path
         class="cls-5"
         d="m 2306.32,633.47 -1.68,64.53 c 0,0 -128.64,-12 -239.82,23.26 l -9.14,-27.92 c 0,0 159.17,-56.77 250.64,-59.87 z"
         transform="translate(-113.72,-122.98)"
         id="path40"
         inkscape:connector-curvature="0"
         style="fill:#ffffff" />
      <path
         class="cls-5"
         d="m 2304.64,698 0.91,-35.09 v 0 c 0,0 -107.12,-4.43 -245.37,44.16 l 4.64,14.16 C 2176,686 2304.64,698 2304.64,698 Z"
         transform="translate(-113.72,-122.98)"
         id="path42"
         inkscape:connector-curvature="0"
         style="fill:#ffffff" />
      <path
         class="cls-5"
         d="m 2228.46,511.61 -59.41,-25.78 c 0,0 -43.49,121.27 -122.53,206.79 l 21.48,20.07 c 0,0 119,-119.77 160.46,-201.08 z"
         transform="translate(-113.72,-122.98)"
         id="path44"
         inkscape:connector-curvature="0"
         style="fill:#ffffff" />
      <path
         class="cls-5"
         d="m 2169.05,485.83 32.29,14 v 0 c 0,0 -41.27,98.64 -143.9,203 l -10.92,-10.18 c 79.04,-85.55 122.53,-206.82 122.53,-206.82 z"
         transform="translate(-113.72,-122.98)"
         id="path46"
         inkscape:connector-curvature="0"
         style="fill:#ffffff" />
      <path
         class="cls-10"
         d="m 2096.33,876.37 c 66.39,-54.79 90.42,-154.5 39.53,-234.14 -50.89,-79.64 -151.7,-100.1 -229.59,-63.31 -160.41,75.79 -612.34,497 -566.53,568.72 45.81,71.72 619.86,-158.42 756.59,-271.27 z"
         transform="translate(-113.72,-122.98)"
         id="path48"
         inkscape:connector-curvature="0"
         style="fill:#ffffff" />
      <path
         class="cls-11"
         d="m 2096.33,876.37 c 66.39,-54.79 90.42,-154.5 39.53,-234.14 A 175,175 0 0 0 2109,609.85 c 34.88,75.49 9.79,163 -50.87,213 -119.13,98.37 -570.13,285.64 -714.61,284.86 -7.54,17.56 -9.3,31.3 -3.78,39.93 45.8,71.68 619.86,-158.42 756.59,-271.27 z"
         transform="translate(-113.72,-122.98)"
         id="path50"
         inkscape:connector-curvature="0"
         style="fill:#ffffff" />
      <path
         class="cls-12"
         d="m 1845.84,668.53 -83.45,70.66 c -8,6.77 -16.12,13.69 -21.81,22.37 -5.69,8.68 -8.69,19.59 -5.43,29 5.15,14.89 24.58,21 40.47,16.51 15.89,-4.49 28.5,-16.78 38.59,-29.77 10.09,-12.99 18.62,-27.26 30.57,-38.68 13.53,-13 30.68,-21.51 47.51,-29.84 l 82,-40.6 c 11.64,-5.77 23.71,-11.86 31.84,-21.9 8.13,-10.04 11,-25.25 3,-34.69 -26.82,-12.59 -60.06,-8.3 -88.06,4.33 -28,12.63 -51.81,32.78 -75.23,52.61 z"
         transform="translate(-113.72,-122.98)"
         id="path52"
         inkscape:connector-curvature="0"
         style="fill:#ffffff" />
      <path
         class="cls-13"
         d="m 1970.3,663.23 c 6.11,10.18 12.79,19.21 18,27.16 l 17.77,26.23 c 0,0 -5.49,-11.44 -13.74,-28.58 -4,-8.64 -9.16,-18.32 -13.72,-29.33 -4.73,-10.89 -9.77,-22.51 -14.81,-34.13 -9,-20.3 -17.32,-40.94 -24.19,-57.49 a 183,183 0 0 0 -23.48,7.7 c 9.63,16 21.66,36.54 34.47,56.78 z"
         transform="translate(-113.72,-122.98)"
         id="path54"
         inkscape:connector-curvature="0"
         style="fill:#ffffff" />
      <path
         class="cls-13"
         d="m 2016.83,845.09 -24.77,-27.81 c -8.08,-8.77 -14.69,-17.54 -20.86,-24.79 L 1951,768 l 16.33,27.14 c 5,8.07 10.41,17.93 17.08,27.75 l 20.46,31.19 c 13.79,21.37 28.34,42.17 39,58 l 0.37,0.54 c 7.62,-4.71 14.85,-9.33 21.55,-13.83 l -2.07,-2.23 c -12.72,-14.02 -30.2,-32.45 -46.89,-51.47 z"
         transform="translate(-113.72,-122.98)"
         id="path56"
         inkscape:connector-curvature="0"
         style="fill:#ffffff" />
      <path
         class="cls-13"
         d="m 1905,934.14 -20.18,-24.49 16.33,27.14 c 5,8.07 10.42,17.93 17.09,27.74 l 8,12.2 c 3.61,-1.77 7.17,-3.55 10.73,-5.32 l -11.11,-12.47 c -8.04,-8.77 -14.66,-17.54 -20.86,-24.8 z"
         transform="translate(-113.72,-122.98)"
         id="path58"
         inkscape:connector-curvature="0"
         style="fill:#ffffff" />
      <path
         class="cls-13"
         d="m 1796.75,941.29 c -7.77,-9 -14.08,-18 -20,-25.48 l -19.32,-25.15 15.4,27.68 c 4.74,8.23 9.8,18.27 16.13,28.31 6.33,10.04 12.78,21 19.38,31.86 8.63,14.44 17.59,28.6 25.6,41.25 q 10.55,-4.68 21,-9.37 c -10.49,-12.16 -22.62,-26.16 -34.35,-40.49 z"
         transform="translate(-113.72,-122.98)"
         id="path60"
         inkscape:connector-curvature="0"
         style="fill:#ffffff" />
      <path
         class="cls-13"
         d="m 1679.72,1026.44 -19.32,-25.15 15.4,27.68 c 4.74,8.23 9.8,18.27 16.13,28.31 3.34,5.48 6.8,11.17 10.31,17 q 6.06,-2.34 12.13,-4.7 l -14.65,-17.61 c -7.72,-9.09 -14.08,-18.08 -20,-25.53 z"
         transform="translate(-113.72,-122.98)"
         id="path62"
         inkscape:connector-curvature="0"
         style="fill:#ffffff" />
      <path
         class="cls-13"
         d="m 1611.7,1093.42 -19.33,-25.16 15.4,27.68 c 1.88,3.26 3.84,6.85 5.87,10.56 l 6.41,-2.19 c -2.92,-3.84 -5.69,-7.54 -8.35,-10.89 z"
         transform="translate(-113.72,-122.98)"
         id="path64"
         inkscape:connector-curvature="0"
         style="fill:#ffffff" />
      <path
         class="cls-13"
         d="m 1456.92,1110.67 -19.33,-25.16 15.4,27.69 c 4.75,8.23 9.8,18.27 16.14,28.3 1.28,2.11 2.63,4.34 3.95,6.5 q 5.63,-1.3 11.42,-2.73 c -2.55,-3.07 -5.12,-6.17 -7.59,-9.12 -7.77,-9.04 -14.08,-18.03 -19.99,-25.48 z"
         transform="translate(-113.72,-122.98)"
         id="path66"
         inkscape:connector-curvature="0"
         style="fill:#ffffff" />
      <path
         class="cls-13"
         d="m 1825.94,745.73 c 6.11,10.18 12.79,19.22 18,27.17 l 17.77,26.22 c 0,0 -5.49,-11.43 -13.74,-28.58 -4,-8.64 -9.16,-18.32 -13.72,-29.33 l -14.81,-34.12 c -8.94,-20.21 -17.24,-40.75 -24.1,-57.27 q -9.51,7 -19.32,14.55 c 8.83,14.74 19.23,32.34 30.22,49.7 6.7,10.78 13.41,21.56 19.7,31.66 z"
         transform="translate(-113.72,-122.98)"
         id="path68"
         inkscape:connector-curvature="0"
         style="fill:#ffffff" />
      <path
         class="cls-13"
         d="m 1625.7,848.6 c 6.1,10.18 12.79,19.22 18,27.16 l 17.77,26.24 c 0,0 -5.5,-11.43 -13.74,-28.58 -4,-8.64 -9.16,-18.32 -13.73,-29.33 L 1619.2,810 c -1.49,-3.35 -3,-6.72 -4.4,-10.07 q -6.21,5.64 -12.4,11.33 l 3.59,5.73 z"
         transform="translate(-113.72,-122.98)"
         id="path70"
         inkscape:connector-curvature="0"
         style="fill:#ffffff" />
      <path
         class="cls-13"
         d="m 1485.67,1017.49 17.77,26.22 -13.74,-28.57 c -4,-8.64 -9.16,-18.32 -13.73,-29.33 l -14.8,-34.13 -0.14,-0.32 q -5.33,5.76 -10.49,11.45 l 17.13,27.51 c 6.1,10.18 12.79,19.22 18,27.17 z"
         transform="translate(-113.72,-122.98)"
         id="path72"
         inkscape:connector-curvature="0"
         style="fill:#ffffff" />
      <path
         class="cls-13"
         d="m 2096.33,876.37 a 184.39,184.39 0 0 0 45,-55.42 c -60.47,51.16 -537.45,329.15 -804.61,310 v 0 c -0.71,6.75 0.21,12.38 3,16.72 45.82,71.65 619.88,-158.45 756.61,-271.3 z"
         transform="translate(-113.72,-122.98)"
         id="path74"
         inkscape:connector-curvature="0"
         style="fill:#ffffff" />
    </g>
    <g
       id="Capa_1"
       data-name="Capa 1"
       style="fill:#ffffff">
      <path
         class="cls-14"
         d="M 113.72,1118.05 V 979.56 c 1.66,-0.52 1.17,-2 1.46,-3.18 8,-31.49 32.22,-50.57 64.64,-50.57 q 443.34,0 886.66,0 c 1.75,0 3.77,-0.82 5.74,1.25 q -13.63,21.18 -27.28,42.37 c -16.61,25.72 -10.44,55.37 15.21,72 q 86.49,55.9 173.11,111.62 c 25.68,16.51 55.38,9.91 71.86,-15.7 q 65.6,-101.94 131.07,-203.95 c 3.7,-5.78 7.54,-7.75 14.32,-7.74 q 359.34,0.27 718.68,0.16 c 2.35,0 4.71,0 7.06,0.05 a 63.87,63.87 0 0 1 60,47.43 c 0.58,2.1 0,4.74 2.28,6.28 v 138.49 c -1.33,0.41 -1.12,1.6 -1.36,2.59 -7.82,32.31 -31.81,51.21 -65.2,51.3 -22.86,0.06 -45.73,0.16 -68.59,-0.11 -4.77,0 -6.39,1.46 -7.56,6.05 q -91.37,357.69 -183.2,715.26 c -15.32,59.38 -54.28,96.76 -113.46,112.86 -7.29,2 -14.84,3 -22.27,4.54 H 571.5 c -0.7,-1.48 -2.13,-1.1 -3.33,-1.3 -67,-11 -111.74,-48.5 -130.07,-114 -26.57,-94.89 -51.33,-190.29 -76.81,-285.49 q -57.82,-216 -115.5,-432.14 c -1.21,-4.57 -3.2,-5.84 -7.8,-5.78 -20.08,0.25 -40.18,0.21 -60.26,0.06 -30.09,-0.22 -54.5,-19.53 -62.14,-48.75 -0.45,-1.71 0.28,-3.99 -1.87,-5.11 z m 628.54,439.76 q 0,-96.45 0,-192.89 c 0,-25.28 -16.46,-41.8 -41.56,-41.89 q -35.25,-0.13 -70.49,0 c -24.67,0.11 -41.54,16.61 -41.57,41.42 q -0.2,192.89 0,385.77 c 0,25.44 17,42 42.38,42.1 22.43,0.07 44.87,-0.54 67.28,0.16 26,0.82 44.59,-18.28 44.26,-44.35 -0.85,-63.43 -0.3,-126.88 -0.3,-190.32 z m 849.92,-7.65 q 0,96.45 0,192.9 c 0,25.6 16.46,42.06 42,42.16 q 34.6,0.12 69.21,0 c 25.88,-0.08 42.42,-16.64 42.42,-42.53 q 0,-191.94 0,-383.89 c 0,-26.18 -16.72,-42.93 -42.8,-43 q -33.32,-0.06 -66.65,0 c -28,0 -44.24,16.1 -44.25,44 q 0.06,95.2 0.07,190.36 z m -329.72,7.74 q 0,96.16 0,192.33 c 0,25.42 16.68,42 42.22,42.09 22.22,0.07 44.45,0 66.67,0 28.43,0 44.61,-16 44.67,-44.36 0,-24.36 0,-48.72 0,-73.08 q 0,-154.19 0,-308.38 c 0,-27.35 -16.2,-43.46 -43.39,-43.5 -22.23,0 -44.48,0.75 -66.67,-0.2 -25.12,-1.08 -44.14,18.19 -43.79,44 0.83,63.72 0.28,127.41 0.29,191.1 z m -179.23,0 q 0,-96.48 0,-193 c 0,-25.23 -16.47,-41.79 -41.61,-41.88 q -34.93,-0.12 -69.88,0 c -25.43,0.08 -42.12,16.63 -42.13,42.21 q -0.12,192.35 0,384.67 c 0,25.73 17,42.36 42.77,42.42 q 33.66,0.06 67.31,0 c 27.21,0 43.55,-16.29 43.55,-43.39 q 0,-95.51 -0.01,-191.04 z"
         transform="translate(-113.72,-122.98)"
         id="path77"
         inkscape:connector-curvature="0"
         style="fill:#ffffff" />
      <path
         class="cls-14"
         d="m 1638.38,123 c 22.43,11.43 42.66,26.4 63.81,39.87 39.21,25 78.19,50.28 117.25,75.48 15.45,10 17.8,20.81 8,36.06 -2,3 -3.84,6.15 -5.81,9.19 q -229.11,355.75 -458.19,711.5 -40.68,63.2 -81.45,126.35 c -9.22,14.28 -20.41,16.61 -34.72,7.38 q -85.21,-54.93 -170.41,-109.89 c -14.62,-9.43 -17.15,-20.66 -7.83,-35.14 q 133.64,-207.61 267.3,-415.21 138.89,-215.66 277.72,-431.33 c 4.53,-7.06 10.2,-11.71 17.92,-14.28 z m -430.29,799.9 c -1.92,0 -3.84,0 -5.76,0 -41,1.18 -71.09,38.6 -63,78.32 6.26,30.72 35,52.11 69.43,51.71 a 66.25,66.25 0 0 0 65.82,-66.12 c 0.21,-31.33 -27.48,-63.81 -66.49,-63.93 z"
         transform="translate(-113.72,-122.98)"
         id="path79"
         inkscape:connector-curvature="0"
         style="fill:#ffffff" />
    </g>
  </g>
</svg>
