<svg id="Capa_1" enable-background="new 0 0 512 512" height="512" viewBox="0 0 512 512" width="512" xmlns="http://www.w3.org/2000/svg"><g id="Filled_cutting_stoke_Expand"><g><path d="m24 24h464v400h-464z" fill="#f2fbff"/><path d="m272 432h-248c-4.418 0-8-3.582-8-8v-256h16v248h240z"/><path d="m24 24h464v64h-464z" fill="#25b1fa"/><path d="m488 16h-464c-4.418 0-8 3.582-8 8v128h16v-56h448v256h16v-328c0-4.418-3.582-8-8-8zm-456 64v-48h448v48z"/><path d="m48 48h16v16h-16z"/><path d="m80 48h16v16h-16z"/><path d="m112 48h16v16h-16z"/><path d="m416 48h48v16h-48z"/><circle cx="380" cy="268" fill="#fac850" r="68"/><path d="m331.021 326.115c-32.095-27.05-36.184-74.997-9.133-107.091 27.05-32.095 74.997-36.184 107.091-9.133s36.184 74.997 9.133 107.091c-2.723 3.231-5.711 6.229-8.932 8.963l-10.36-12.195c25.266-21.44 28.368-59.303 6.928-84.57s-59.303-28.368-84.57-6.928-28.368 59.303-6.928 84.57c2.162 2.548 4.533 4.91 7.088 7.063z"/><path d="m400 368v-74c0-16.569-13.431-30-30-30h-10v128l-26.724-6.681c-16.074-4.018-32.362 5.754-36.38 21.828-.595 2.38-.896 4.823-.896 7.276v9.577l64 24v40h128v-90c0-16.569-13.431-30-30-30z" fill="#ffd4cf"/><path d="m488 496h-128c-4.418 0-8-3.582-8-8v-34.456l-58.809-22.053c-3.123-1.171-5.191-4.156-5.191-7.491v-9.577c0-20.987 17.013-38 38-38 3.107 0 6.202.381 9.217 1.135l16.783 4.2v-117.758c0-4.418 3.582-8 8-8h10c20.977.024 37.976 17.023 38 38v66h50c20.977.024 37.976 17.023 38 38v42h-16v-42c-.014-12.145-9.855-21.986-22-22h-58c-4.418 0-8-3.582-8-8v-74c-.014-12.145-9.855-21.986-22-22h-2v120c0 4.418-3.582 8-8 8-.654 0-1.305-.08-1.94-.239l-26.724-6.681c-11.787-2.947-23.732 4.22-26.679 16.007-.436 1.745-.657 3.537-.657 5.336v4.033l58.809 22.053c3.123 1.171 5.191 4.156 5.191 7.491v32h112v-24h16v32c0 4.418-3.582 8-8 8z"/><g><path d="m293.657 181.657-11.314-11.314 56-56c1.5-1.5 3.535-2.343 5.657-2.343h120v16h-116.687z"/><path d="m352 144h24v16h-24z"/><path d="m392 144h72v16h-72z"/></g><g><path d="m249.077 216.018c-.272-14.2-5.912-26.383-16.533-32.515-19.132-11.046-47.177 1.713-62.641 28.5s-12.491 57.452 6.641 68.5c14.106 8.145 33.06 3.347 48.242-10.473 12.164 12.821 32.418 13.355 45.239 1.191s13.355-32.418 1.191-45.239c-5.785-6.098-13.738-9.675-22.139-9.958z" fill="#31cad0"/><path d="m88 192h96v176h-96z" fill="#80daff"/><path d="m184 192h-96l8-32h80z" fill="#25b1fa"/><path d="m96 136h80v24h-80z" fill="#80daff"/><path d="m192 376h-80v-102c0-5.523 4.477-10 10-10h70z" fill="#cc6d3d"/><path d="m272 264h-80c-8.837 0-16 7.163-16 16 0 8.837 7.163 16 16 16v80h80v-80c8.837 0 16-7.163 16-16 0-8.837-7.163-16-16-16z" fill="#f7b17c"/><ellipse cx="92" cy="328" fill="#fbb8b0" rx="36" ry="48"/><g><path d="m286 260.514c6.908-21.002-4.519-43.628-25.521-50.535-1.289-.424-2.598-.782-3.923-1.073-1.932-14.416-9.015-25.984-20.008-32.332-13.705-7.912-31.3-6.338-47.255 3.6l-5.293-21.157v-23.017c0-4.418-3.582-8-8-8h-80c-4.418 0-8 3.582-8 8v23.017l-7.72 30.883c-.154.567-.245 1.148-.271 1.735v.026c0 .062 0 .125-.006.188v.053.1 82.117c-18.448 6.664-32 28.3-32 53.883 0 30.878 19.738 56 44 56 4.77-.006 9.49-.976 13.876-2.853 1.518 1.809 3.759 2.853 6.121 2.851h160c4.418 0 8-3.582 8-8v-40h-16v32h-64v-72c0-4.418-3.582-8-8-8s-8-3.582-8-8 3.582-8 8-8h80c4.418 0 8 3.582 8 8s-3.582 8-8 8-8 3.582-8 8v24h16v-17.371c12.495-4.413 19.046-18.119 14.633-30.614-1.634-4.626-4.647-8.64-8.633-11.501zm-57.456-70.084c7.739 4.469 12.308 13.851 12.533 25.741.081 4.256 3.481 7.703 7.735 7.843 13.253.454 23.628 11.567 23.174 24.82-.084 2.444-.54 4.86-1.354 7.166h-60.21l26.016-17.344-8.876-13.312-35.562 23.708v-51.163c12.489-10.265 26.562-13.22 36.544-7.459zm-124.544 83.57v.117c-2.584-.937-5.269-1.571-8-1.887v-72.23h80v56h-54c-9.936.012-17.988 8.064-18 18zm-1.754-106h67.508l4 16h-75.508zm1.754-24h64v8h-64zm-40 184c0-21.682 12.822-40 28-40s28 18.318 28 40-12.822 40-28 40-28-18.318-28-40zm120-25.371v65.371h-61.236c8.163-10.172 13.236-24.346 13.236-40 0-17.352-6.233-32.887-16-43.167v-10.833c0-1.105.895-2 2-2h47.371c-4.415 12.497 2.134 26.208 14.629 30.629z"/><path d="m208 304h16v16h-16z"/><path d="m224 336h16v16h-16z"/></g></g></g></g></svg>