<?xml version="1.0" encoding="iso-8859-1"?>
<!-- Generator: Adobe Illustrator 19.0.0, SVG Export Plug-In . SVG Version: 6.00 Build 0)  -->
<svg version="1.1" id="Capa_1" xmlns="http://www.w3.org/2000/svg" xmlns:xlink="http://www.w3.org/1999/xlink" x="0px" y="0px"
	 viewBox="0 0 511.999 511.999" style="enable-background:new 0 0 511.999 511.999;" xml:space="preserve">
<path style="fill:#21D8DE;" d="M378.492,504.713H133.506c-15.66,0-28.355-12.695-28.355-28.355V35.641
	c0-15.66,12.695-28.355,28.355-28.355h244.987c15.66,0,28.355,12.695,28.355,28.355v440.717
	C406.847,492.019,394.152,504.713,378.492,504.713z"/>
<path style="fill:#10C4C4;" d="M378.492,7.287h-15.469c1.276,3.226,1.984,6.738,1.984,10.417v440.717
	c0,15.66-12.695,28.355-28.355,28.355H107.135c4.153,10.503,14.39,17.937,26.371,17.937h244.986
	c15.66,0,28.355-12.695,28.355-28.355V35.641C406.847,19.982,394.152,7.287,378.492,7.287z"/>
<path style="fill:#FFFFFF;" d="M138.055,435.738h236.827c3.005,0,5.441-2.436,5.441-5.441V63.549c0-3.005-2.436-5.441-5.441-5.441
	H138.055c-3.005,0-5.441,2.436-5.441,5.441v366.747C132.614,433.302,135.05,435.738,138.055,435.738z"/>
<path style="fill:#E1EFFB;" d="M374.882,58.108H336.28v354.458c0,3.005-2.436,5.441-5.441,5.441H132.614v12.289
	c0,3.005,2.436,5.441,5.441,5.441h236.827c3.005,0,5.441-2.436,5.441-5.441V63.549C380.324,60.544,377.888,58.108,374.882,58.108z"
	/>
<circle style="fill:#0FB0C0;" cx="255.999" cy="471.93" r="15.209"/>
<g>
	<circle style="fill:#CCCCCC;" cx="206.719" cy="259.79" r="11.94"/>
	<circle style="fill:#CCCCCC;" cx="299.589" cy="259.79" r="11.94"/>
</g>
<path style="fill:#FF4C4C;" d="M180.932,152.574l18.708,73.353h111.71c2.279,0,4.267-1.545,4.831-3.753l16.165-63.382
	c0.804-3.152-1.578-6.217-4.831-6.217L180.932,152.574L180.932,152.574z"/>
<path d="M290.65,39.892c4.024,0,7.287-3.262,7.287-7.287s-3.262-7.287-7.287-7.287h-69.303c-4.024,0-7.287,3.262-7.287,7.287
	s3.262,7.287,7.287,7.287H290.65z"/>
<path d="M406.847,82.824c4.024,0,7.287-3.262,7.287-7.287V35.641C414.134,15.989,398.145,0,378.492,0H133.506
	c-19.653,0-35.641,15.989-35.641,35.641v440.717c0,19.653,15.989,35.641,35.641,35.641h244.987
	c19.653,0,35.641-15.989,35.641-35.641V128.243c0-4.024-3.262-7.287-7.287-7.287s-7.287,3.262-7.287,7.287v348.115
	c0,11.617-9.451,21.068-21.068,21.068H133.506c-11.617,0-21.068-9.451-21.068-21.068V35.641c0-11.617,9.451-21.068,21.068-21.068
	h244.987c11.617,0,21.068,9.451,21.068,21.068v39.896C399.561,79.561,402.823,82.824,406.847,82.824z"/>
<path d="M387.61,430.296V63.549c0-7.018-5.71-12.728-12.728-12.728H138.055c-7.018,0-12.728,5.71-12.728,12.728v366.747
	c0,7.018,5.71,12.728,12.728,12.728h236.827C381.9,443.024,387.61,437.315,387.61,430.296z M373.037,428.451H139.9V65.395h233.137
	V428.451z"/>
<path d="M229.372,333.257c0,4.024,3.262,7.287,7.287,7.287h114.989c4.024,0,7.287-3.262,7.287-7.287s-3.262-7.287-7.287-7.287
	h-114.99C232.634,325.971,229.372,329.233,229.372,333.257z"/>
<path d="M160.351,340.544h25.302c4.024,0,7.287-3.262,7.287-7.287s-3.262-7.287-7.287-7.287h-25.302
	c-4.024,0-7.287,3.262-7.287,7.287S156.327,340.544,160.351,340.544z"/>
<path d="M351.647,363.355H160.351c-4.024,0-7.287,3.262-7.287,7.287c0,4.024,3.262,7.287,7.287,7.287h191.296
	c4.024,0,7.287-3.262,7.287-7.287S355.671,363.355,351.647,363.355z"/>
<path d="M220.443,214.756c0.596,0,1.202-0.074,1.806-0.228c3.899-0.995,6.254-4.962,5.26-8.861l-9.292-36.433
	c-0.995-3.899-4.963-6.252-8.861-5.26c-3.899,0.995-6.254,4.962-5.26,8.861l9.292,36.433
	C214.228,212.564,217.192,214.756,220.443,214.756z"/>
<path d="M256.717,214.754c4.024,0,7.286-3.262,7.286-7.287v-36.433c0-4.024-3.262-7.287-7.286-7.287
	c-4.024,0-7.287,3.262-7.287,7.287v36.433C249.431,211.491,252.693,214.754,256.717,214.754z"/>
<path d="M291.186,214.528c0.604,0.154,1.21,0.228,1.806,0.228c3.251,0,6.215-2.193,7.056-5.488l9.292-36.433
	c0.994-3.899-1.361-7.867-5.26-8.861c-3.898-0.99-7.866,1.361-8.861,5.26l-9.292,36.433
	C284.932,209.566,287.286,213.533,291.186,214.528z"/>
<path d="M151.057,116.801l14.825,8.207c0.355,0.196,0.617,0.535,0.717,0.929l0,0l0,0c0.002,0.008,0,0,0.002,0.008l29.994,117.524
	c0.001,0.005,0,0,0.001,0.005l-0.001-0.005c-5.456,3.396-9.107,9.431-9.107,16.317c0,10.602,8.625,19.227,19.227,19.227
	c8.023,0,14.905-4.943,17.783-11.94h57.304c2.878,6.997,9.761,11.94,17.783,11.94c8.023,0,14.906-4.943,17.784-11.94h3.931
	c4.024,0,7.287-3.262,7.287-7.287c0-4.024-3.262-7.287-7.287-7.287h-3.921c-0.015-0.037-0.034-0.072-0.049-0.108
	c-0.049-0.117-0.106-0.229-0.157-0.345c-0.179-0.404-0.369-0.802-0.575-1.191c-0.083-0.157-0.168-0.312-0.255-0.466
	c-0.207-0.369-0.427-0.728-0.658-1.081c-0.079-0.121-0.153-0.244-0.234-0.363c-0.314-0.459-0.646-0.904-0.997-1.333
	c-0.064-0.078-0.134-0.151-0.2-0.229c-0.296-0.35-0.604-0.688-0.924-1.016c-0.12-0.123-0.243-0.243-0.367-0.363
	c-0.299-0.29-0.607-0.57-0.924-0.84c-0.115-0.098-0.226-0.198-0.342-0.293c-0.431-0.351-0.875-0.686-1.336-0.999
	c-0.064-0.044-0.132-0.081-0.197-0.124c-0.402-0.266-0.814-0.516-1.237-0.752c-0.15-0.084-0.302-0.162-0.454-0.242
	c-0.367-0.192-0.741-0.372-1.122-0.541c-0.147-0.065-0.293-0.134-0.442-0.196c-0.521-0.216-1.051-0.414-1.593-0.584
	c-0.045-0.014-0.091-0.024-0.136-0.037c-0.499-0.152-1.008-0.281-1.524-0.393c-0.171-0.037-0.344-0.068-0.517-0.1
	c-0.416-0.078-0.836-0.142-1.26-0.193c-0.174-0.021-0.346-0.044-0.522-0.06c-0.585-0.054-1.174-0.09-1.772-0.09
	s-1.188,0.036-1.772,0.09c-0.175,0.016-0.348,0.039-0.522,0.06c-0.424,0.051-0.844,0.115-1.26,0.193
	c-0.173,0.032-0.346,0.063-0.517,0.1c-0.515,0.112-1.024,0.24-1.523,0.392c-0.045,0.014-0.092,0.024-0.138,0.038
	c-0.543,0.17-1.072,0.369-1.593,0.584c-0.15,0.062-0.295,0.131-0.443,0.196c-0.38,0.169-0.754,0.348-1.121,0.541
	c-0.153,0.08-0.305,0.159-0.455,0.243c-0.421,0.235-0.833,0.485-1.234,0.751c-0.065,0.043-0.134,0.081-0.199,0.125
	c-0.461,0.313-0.904,0.648-1.335,0.999c-0.117,0.095-0.229,0.196-0.344,0.294c-0.317,0.27-0.625,0.549-0.923,0.839
	c-0.124,0.12-0.247,0.24-0.367,0.364c-0.319,0.327-0.626,0.665-0.922,1.014c-0.066,0.078-0.137,0.152-0.202,0.231
	c-0.352,0.429-0.683,0.874-0.997,1.332c-0.082,0.119-0.156,0.243-0.236,0.365c-0.23,0.353-0.45,0.712-0.657,1.08
	c-0.087,0.154-0.172,0.309-0.255,0.466c-0.205,0.389-0.396,0.787-0.575,1.191c-0.051,0.116-0.108,0.228-0.157,0.345
	c-0.015,0.037-0.034,0.071-0.049,0.108h-57.285c-0.017-0.04-0.036-0.079-0.053-0.119c-0.033-0.077-0.069-0.152-0.102-0.229
	c-0.201-0.463-0.42-0.917-0.656-1.36c-0.041-0.077-0.079-0.156-0.122-0.233c-0.26-0.474-0.543-0.934-0.841-1.382
	c-0.064-0.096-0.129-0.189-0.194-0.284c-0.312-0.452-0.637-0.894-0.985-1.317c-0.015-0.018-0.031-0.035-0.046-0.052
	c-0.34-0.41-0.702-0.802-1.074-1.182c-0.076-0.078-0.151-0.156-0.228-0.232c-0.381-0.376-0.777-0.736-1.188-1.08
	c-0.077-0.065-0.157-0.126-0.235-0.189c-0.396-0.32-0.803-0.627-1.223-0.916c-0.047-0.032-0.093-0.068-0.14-0.1
	c-0.45-0.303-0.917-0.582-1.393-0.847c-0.103-0.057-0.207-0.114-0.311-0.169c-0.48-0.256-0.97-0.496-1.473-0.711
	c-0.063-0.027-0.127-0.049-0.19-0.076c-0.473-0.196-0.956-0.372-1.446-0.53c-0.092-0.03-0.183-0.062-0.276-0.091
	c-0.432-0.132-0.869-0.254-1.314-0.356l-1.997-7.831h102.331c5.614,0,10.504-3.799,11.891-9.239l16.165-63.382
	c0.944-3.698,0.142-7.548-2.2-10.562s-5.874-4.742-9.691-4.742H186.591l-5.872-22.962l0,0c-1.092-4.267-3.927-7.937-7.779-10.068
	l-14.824-8.206c-3.52-1.95-7.954-0.675-9.904,2.846C146.262,110.418,147.536,114.852,151.057,116.801z M299.585,255.132
	c2.566,0,4.654,2.088,4.654,4.654s-2.088,4.654-4.654,4.654c-2.566,0-4.654-2.088-4.654-4.654
	C294.932,257.22,297.019,255.132,299.585,255.132z M211.369,259.786c0,2.566-2.088,4.654-4.654,4.654
	c-2.566,0-4.654-2.088-4.654-4.654c0-2.566,2.088-4.654,4.654-4.654S211.369,257.22,211.369,259.786z M324.553,159.861
	l-14.991,58.779H205.303l-14.991-58.779H324.553z"/>
<path d="M233.503,471.926c0,12.404,10.092,22.496,22.496,22.496c12.404,0,22.496-10.092,22.496-22.496s-10.092-22.495-22.496-22.495
	S233.503,459.522,233.503,471.926z M263.922,471.926c0,4.369-3.554,7.923-7.923,7.923s-7.923-3.554-7.923-7.923
	c0-4.368,3.554-7.922,7.923-7.922C260.368,464.004,263.922,467.557,263.922,471.926z"/>
<g>
</g>
<g>
</g>
<g>
</g>
<g>
</g>
<g>
</g>
<g>
</g>
<g>
</g>
<g>
</g>
<g>
</g>
<g>
</g>
<g>
</g>
<g>
</g>
<g>
</g>
<g>
</g>
<g>
</g>
</svg>
